<svg width="48" height="48" viewBox="0 0 48 48" fill="none" xmlns="http://www.w3.org/2000/svg">
<g clip-path="url(#clip0_307_17)">
<path d="M13 46.5C19.3513 46.5 24.5 41.3513 24.5 35C24.5 28.6487 19.3513 23.5 13 23.5C6.64873 23.5 1.5 28.6487 1.5 35C1.5 41.3513 6.64873 46.5 13 46.5Z" stroke="#281A3B" stroke-width="2" stroke-linecap="round" stroke-linejoin="round"/>
<path d="M13 46.5C19.3513 46.5 24.5 41.3513 24.5 35C24.5 28.6487 19.3513 23.5 13 23.5C6.64873 23.5 1.5 28.6487 1.5 35C1.5 41.3513 6.64873 46.5 13 46.5Z" fill="#FEDE94"/>
<path d="M13 23.5C12.2446 23.4996 11.491 23.5733 10.75 23.72C13.3578 24.2406 15.7046 25.6488 17.3909 27.705C19.0772 29.7612 19.9988 32.3383 19.9988 34.9975C19.9988 37.6568 19.0772 40.2338 17.3909 42.29C15.7046 44.3462 13.3578 45.7544 10.75 46.275C12.3253 46.5913 13.9493 46.5739 15.5175 46.2241C17.0856 45.8743 18.5631 45.1998 19.8546 44.244C21.1461 43.2883 22.223 42.0725 23.0159 40.675C23.8087 39.2776 24.3 37.7295 24.458 36.1306C24.6159 34.5317 24.4371 32.9174 23.933 31.3919C23.4289 29.8663 22.6107 28.4633 21.5312 27.2733C20.4516 26.0833 19.1347 25.1327 17.6654 24.4828C16.196 23.8329 14.6067 23.4981 13 23.5Z" fill="#E0B870"/>
<path d="M13 46.5C19.3513 46.5 24.5 41.3513 24.5 35C24.5 28.6487 19.3513 23.5 13 23.5C6.64873 23.5 1.5 28.6487 1.5 35C1.5 41.3513 6.64873 46.5 13 46.5Z" stroke="#281A3B" stroke-width="2" stroke-linecap="round" stroke-linejoin="round"/>
<path d="M24.5 35H1.5" stroke="#281A3B" stroke-width="2" stroke-linecap="round" stroke-linejoin="round"/>
<path d="M46.5 10.5V24H27.5V10.5C27.5 7.98044 28.5009 5.56408 30.2825 3.78249C32.0641 2.00089 34.4804 1 37 1C39.5196 1 41.9359 2.00089 43.7175 3.78249C45.4991 5.56408 46.5 7.98044 46.5 10.5Z" fill="#AAE1E9"/>
<path d="M37 1C36.3276 1.00069 35.6572 1.07276 35 1.215C37.1231 1.67222 39.0255 2.84311 40.3902 4.53261C41.7549 6.2221 42.4995 8.32819 42.5 10.5V24H46.5V10.5C46.5 7.98044 45.4991 5.56408 43.7175 3.78249C41.9359 2.00089 39.5196 1 37 1Z" fill="#75C9C9"/>
<path d="M46.5 10.5V24H27.5V10.5C27.5 7.98044 28.5009 5.56408 30.2825 3.78249C32.0641 2.00089 34.4804 1 37 1C39.5196 1 41.9359 2.00089 43.7175 3.78249C45.4991 5.56408 46.5 7.98044 46.5 10.5Z" stroke="#281A3B" stroke-width="2" stroke-linecap="round" stroke-linejoin="round"/>
<path d="M46.5 24H27.5" stroke="#281A3B" stroke-width="2" stroke-linecap="round" stroke-linejoin="round"/>
<path d="M46.5 24V37.5C46.5 40.0196 45.4991 42.4359 43.7175 44.2175C41.9359 45.9991 39.5196 47 37 47C34.4804 47 32.0641 45.9991 30.2825 44.2175C28.5009 42.4359 27.5 40.0196 27.5 37.5V24H46.5Z" fill="#EAEAEA"/>
<path d="M42.5 24V37.5C42.4995 39.6718 41.7549 41.7779 40.3902 43.4674C39.0255 45.1569 37.1231 46.3278 35 46.785C36.3854 47.0834 37.82 47.068 39.1987 46.74C40.5774 46.412 41.8652 45.7797 42.9679 44.8894C44.0705 43.9992 44.96 42.8735 45.5711 41.5949C46.1823 40.3163 46.4997 38.9172 46.5 37.5V24H42.5Z" fill="#BACECE"/>
<path d="M46.5 24V37.5C46.5 40.0196 45.4991 42.4359 43.7175 44.2175C41.9359 45.9991 39.5196 47 37 47C34.4804 47 32.0641 45.9991 30.2825 44.2175C28.5009 42.4359 27.5 40.0196 27.5 37.5V24H46.5Z" stroke="#281A3B" stroke-width="2" stroke-linecap="round" stroke-linejoin="round"/>
<path d="M46.5 24H27.5" stroke="#281A3B" stroke-width="2" stroke-linecap="round" stroke-linejoin="round"/>
<path d="M46.5 10.5C46.5 5.25329 42.2467 1 37 1C31.7533 1 27.5 5.25329 27.5 10.5V37.5C27.5 42.7467 31.7533 47 37 47C42.2467 47 46.5 42.7467 46.5 37.5V10.5Z" stroke="#281A3B" stroke-width="2" stroke-linecap="round" stroke-linejoin="round"/>
</g>
<defs>
<clipPath id="clip0_307_17">
<rect width="48" height="48" fill="white"/>
</clipPath>
</defs>
</svg>
