<svg xmlns="http://www.w3.org/2000/svg" width="1636" height="1636" viewBox="0 0 1636 1636" version="1.1"><path d="M 0 818.001 L 0 1636.001 818.250 1635.751 L 1636.500 1635.500 1636.751 817.750 L 1637.001 0 818.501 0 L 0 0 0 818.001 M 0.498 818.500 C 0.498 1268.400, 0.611 1452.300, 0.750 1227.168 C 0.889 1002.035, 0.889 633.935, 0.750 409.168 C 0.611 184.400, 0.498 368.600, 0.498 818.500 M 641.500 368.536 C 614.672 372.857, 561.414 395.009, 545.101 408.632 C 544.881 408.815, 551.676 422.810, 560.200 439.733 L 575.698 470.500 566.851 524.500 C 499.394 936.253, 487.883 1047.263, 508.316 1089 C 526.115 1125.355, 587.224 1129.576, 639.407 1098.056 L 647.778 1093 721.889 1093 L 796 1093 796 1173.500 L 796 1254 844 1254 L 892 1254 892 1173.500 L 892 1093 979 1093 L 1066 1093 1066 1045 L 1066 997 978.993 997 L 891.985 997 892.243 933.459 L 892.500 869.917 905.252 864.585 C 1125.479 772.491, 1128.734 417.593, 909.756 373.549 C 846.490 360.824, 765.821 374.482, 715.500 406.438 C 712.750 408.185, 710.005 409.911, 709.400 410.273 C 708.678 410.706, 707.734 408.055, 706.654 402.560 C 700.788 372.705, 680.710 362.220, 641.500 368.536 M 785 449.648 C 753.274 452.618, 702.284 469.659, 700.551 477.872 C 697.734 491.218, 649.828 792.891, 650.217 794.835 C 651.282 800.158, 691.574 808.836, 723 810.511 C 858.027 817.709, 954.196 721.780, 944.061 590 C 936.818 495.807, 874.961 441.226, 785 449.648 M 639 861.330 C 639 861.630, 636.986 875.965, 634.524 893.187 C 629.143 930.835, 625.295 964.580, 624.253 983.250 L 623.486 997 709.743 997 L 796 997 796 942.622 L 796 888.244 768.250 887.732 C 716.435 886.775, 684.277 880.140, 640.250 861.320 C 639.563 861.026, 639 861.031, 639 861.330" stroke="none" fill="#ffffff" fill-rule="evenodd"/><path d="M 651.500 367.693 C 623.679 370.177, 586.275 384.091, 552.824 404.400 L 545.185 409.037 560.650 439.492 L 576.115 469.947 567.506 522.724 C 499.768 937.984, 488.372 1046.774, 508.306 1087.854 C 526.356 1125.049, 588.149 1129.538, 639.713 1097.399 L 646.927 1092.903 643.579 1088.202 C 626.756 1064.575, 620.060 1024.623, 624.439 974 C 626.790 946.820, 635.615 877.414, 638.568 862.884 L 639.100 860.269 648.300 864.255 C 711.015 891.424, 804.249 895.652, 876.500 874.604 C 1126.439 801.792, 1141.179 407.590, 895.317 371.346 C 837.785 362.865, 763.233 377.597, 715.732 406.834 C 707.575 411.856, 707 411.913, 707 407.710 C 707 380.059, 685.625 364.647, 651.500 367.693 M 772.164 450.510 C 753.004 453.434, 732.892 459.865, 711.454 469.920 L 700.458 475.078 691.153 532.289 C 679.653 602.985, 650.279 788.260, 649.830 792.927 L 649.500 796.353 659 799.761 C 724.549 823.269, 814.712 810.529, 869 770.087 C 977.130 689.536, 968.913 495.381, 855.772 457.522 C 833.752 450.154, 795.507 446.946, 772.164 450.510" stroke="none" fill="#454545" fill-rule="evenodd"/><path d="M 890.986 869.948 C 880.575 876.049, 824.913 886.593, 800 887.184 C 795.325 887.295, 792.513 887.555, 793.750 887.762 L 796 888.139 796 942.570 L 796 997 709.344 997 L 622.687 997 623.308 1013.250 C 624.537 1045.428, 631.245 1070.423, 643.370 1088 C 645.077 1090.475, 646.405 1092.725, 646.320 1093 C 646.236 1093.275, 679.879 1093.382, 721.083 1093.237 L 796 1092.975 796 1173.487 L 796 1254 844 1254 L 892 1254 892 1173.500 L 892 1093 979 1093 L 1066 1093 1066 1045 L 1066 997 978.985 997 L 891.971 997 892.235 933 C 892.381 897.800, 892.500 869.013, 892.500 869.030 C 892.500 869.047, 891.819 869.460, 890.986 869.948" stroke="none" fill="#9ac7f0" fill-rule="evenodd"/></svg>