<svg width="48" height="48" viewBox="0 0 48 48" fill="none" xmlns="http://www.w3.org/2000/svg">
<path d="M0 42V6H1.6875V42H0ZM2.51784 41.9744V6H3.375V41.9744H2.51784ZM5.0625 41.9744V6H5.89284V41.9744H5.0625ZM9.26784 41.9744V6H10.0982V41.9744H9.26784ZM12.6428 41.9744V6H14.3035V41.9744H12.6428ZM16.8482 41.9744V6H17.6785V41.9744H16.8482ZM18.5357 41.9744V6H19.366V41.9744H18.5357ZM20.2232 41.9744V6H21.0535V41.9744H20.2232ZM23.5715 41.9744V6H25.259V41.9744H23.5715ZM27.7768 41.9744V6H29.4643V41.9744H27.7768ZM31.1517 41.9744V6H32.8393V41.9744H31.1517ZM34.5268 41.9744V6H36.2144V41.9744H34.5268ZM37.0447 41.9744V6H38.7322V41.9744H37.0447ZM41.2768 41.9744V6H43.7947V41.9744H41.2768ZM44.625 41.9744V6H45.4822V41.9744H44.625ZM46.3125 42V6H48V42H46.3125Z" fill="black"/>
</svg>
