<!--<svg xmlns="http://www.w3.org/2000/svg" viewBox="0 0 21.82 23.78"><g id="Layer_2" data-name="Layer 2"><g id="Layer_1-2" data-name="Layer 1"></g></g></svg>-->
<svg xmlns="http://www.w3.org/2000/svg" viewBox="0 0 21.82 23.78">
    <g id="Layer_2">
        <g id="Layer_1-2">
            <path d="M8,23.78c-.39-.06-.79-.1-1.18-.19a8.37,8.37,0,0,1-5.52-3.77l-.12-.2.58-.36A7.78,7.78,0,0,0,7.31,23a8,8,0,0,0,6.48-1.71l.44.53a8.65,8.65,0,0,1-2,1.23,8.81,8.81,0,0,1-2.8.71l-.18,0Z"/><path d="M19.36,9,19,9.54a4.74,4.74,0,0,0-4.48-.41A4.65,4.65,0,0,0,12,11.48a4.77,4.77,0,1,0,7.47-1.55L20,9.44A5.48,5.48,0,1,1,19.36,9Z"/><path d="M19.26,13.55c0,.5,0,1,0,1.49a.27.27,0,0,1-.16.27l-2.61,1.5a.37.37,0,0,1-.29,0L13.6,15.3a.35.35,0,0,1-.15-.25c0-1,0-2,0-3a.34.34,0,0,1,.14-.25c.87-.51,1.74-1,2.61-1.51a.37.37,0,0,1,.31,0l2.58,1.47a.32.32,0,0,1,.18.31C19.26,12.56,19.26,13.06,19.26,13.55Zm-4.73-1.5,0,.06c.57.33,1.13.66,1.69,1a.37.37,0,0,0,.25,0l1.35-.78.35-.21c-.61-.34-1.17-.68-1.74-1a.27.27,0,0,0-.23,0C15.67,11.38,15.11,11.71,14.53,12.05Zm-.34.65,0,.05c0,.65,0,1.3,0,1.95a.29.29,0,0,0,.15.2l1.36.79.35.19c0-.55,0-1.06,0-1.57a.74.74,0,0,0-.49-.85C15.06,13.24,14.63,13,14.19,12.7Zm2.52,3.19c.62-.36,1.2-.69,1.77-1,.06,0,.08-.14.08-.21,0-.6,0-1.19,0-1.79,0,0,0-.09,0-.17l-1.74,1a.19.19,0,0,0-.09.16C16.7,14.52,16.71,15.17,16.71,15.89Z"/><path d="M13.81,7.87l-.59.38-4.59-7L5.88,5.45,5.3,5.06,8.63,0Z"/><path d="M4.92,5.66,5.49,6a1.91,1.91,0,0,1-.14.21L2,11.36A7.27,7.27,0,0,0,.7,15.71a7.19,7.19,0,0,0,.62,2.7,2.29,2.29,0,0,0,.1.23l0,.05L.81,19a7.77,7.77,0,0,1-.72-2.33A7.92,7.92,0,0,1,1.42,11l3.36-5.1A1.82,1.82,0,0,1,4.92,5.66Z"/><path d="M7.2,16.37l-.62-.29a1.77,1.77,0,0,0-.59-2,2.53,2.53,0,0,0-2.39-.63,1.49,1.49,0,0,0-1,2.26,2.54,2.54,0,0,0,3.62.85L6.7,17a2.44,2.44,0,0,1-1.64.64,3.21,3.21,0,0,1-3-1.56,2.19,2.19,0,0,1,1.45-3.4A3.3,3.3,0,0,1,7.22,14.6,2.22,2.22,0,0,1,7.2,16.37Z"/><path d="M11.76,18.75a3.32,3.32,0,0,1-.92,2.19,2,2,0,0,1-3.4-.7,3.13,3.13,0,0,1,.79-3.33,2,2,0,0,1,3.32.85A8.29,8.29,0,0,1,11.76,18.75Zm-.7,0a6.13,6.13,0,0,0-.21-.87,1.27,1.27,0,0,0-2.15-.46A2.32,2.32,0,0,0,8,19.77a1.34,1.34,0,0,0,1,1.12,1.41,1.41,0,0,0,1.44-.6A2.71,2.71,0,0,0,11.06,18.76Z"/><path d="M10.5,11.18a2.42,2.42,0,0,1-.64,1.76,1.84,1.84,0,0,1-2.08.41,3,3,0,0,1-1.7-3.77,2,2,0,0,1,3.18-.8A3.08,3.08,0,0,1,10.5,11.18Zm-.7.09A2.36,2.36,0,0,0,8.5,9.13,1.26,1.26,0,0,0,6.68,10a2.41,2.41,0,0,0,.94,2.53,1.3,1.3,0,0,0,2.16-.94A2.46,2.46,0,0,0,9.8,11.27Z"/><path d="M6.37,19.46a1.38,1.38,0,0,1-.9,1.24,1.35,1.35,0,0,1-1.56-.2,1,1,0,0,1-.27-1.17,1.57,1.57,0,0,1,2-.91A1.09,1.09,0,0,1,6.37,19.46Zm-1.56.7a.91.91,0,0,0,.8-.48A.42.42,0,0,0,5.33,19a.86.86,0,0,0-.89.29.48.48,0,0,0-.13.55C4.41,20.09,4.6,20.13,4.81,20.16Z"/><path d="M9.08,7.44a1.24,1.24,0,0,1-1.28-.7A1.18,1.18,0,0,1,8.12,5.4,1.51,1.51,0,0,1,9.65,5a1.1,1.1,0,0,1,.72,1.63A1.52,1.52,0,0,1,9.08,7.44ZM9,6.75a.87.87,0,0,0,.74-.42.44.44,0,0,0-.34-.71.9.9,0,0,0-.78.28.5.5,0,0,0-.15.57C8.54,6.69,8.74,6.74,9,6.75Z"/><path d="M5.38,15.57l.14.64a2.1,2.1,0,0,1-2.4-1l.57-.36A1.55,1.55,0,0,0,5.38,15.57Z"/><path d="M14.8,21.33l-.49-.5,1.06-1.29.58.38Z"/><path d="M10.85,8.87V8.21h.67v.66Z"/><path d="M5.85,7.57V6.9h.67v.67Z"/><path d="M8.64,15.26v-.67h.68v.67Z"/><path d="M2.36,18.12H3v.67H2.36Z"/><path d="M13.31,19.33V20h-.66v-.67Z"/><path d="M4,10.59h.67v.66H4Z"/><path d="M10.09,17.9a1.77,1.77,0,0,1-.52,2.31l-.42-.54a1.16,1.16,0,0,0,.34-1.48Z"/><path d="M7.41,10l.64.16a1.14,1.14,0,0,0,.63,1.39l-.32.61A1.75,1.75,0,0,1,7.41,10Z"/>
        </g>
    </g>
</svg>
