<svg xmlns="http://www.w3.org/2000/svg" viewBox="0 0 22.47 22.46">
    <g id="Layer_2">
        <g id="Layer_1-2">
            <path d="M21.29,10.25c.17-.19.31-.36.47-.52s.42-.24.59-.07.15.38-.06.59a13.49,13.49,0,0,1-7.14,3.92,15.09,15.09,0,0,0-6.34,2.76,16.38,16.38,0,0,0-4.19,4.85l-.26.45a.38.38,0,1,1-.65-.38c.39-.63.77-1.28,1.2-1.89a15.64,15.64,0,0,1,6.31-5.34l.44-.2a5.24,5.24,0,0,1,2.77-6.89A5.27,5.27,0,0,1,21.29,10.25Zm-8.94,3.86c.79-.2,1.54-.43,2.31-.59a13.4,13.4,0,0,0,5.82-2.63.26.26,0,0,0,.09-.38,4.49,4.49,0,0,0-8.44.71A4.41,4.41,0,0,0,12.35,14.11Z"/>
            <path d="M18.82.42a.76.76,0,0,1-.07.19A16.89,16.89,0,0,1,12.66,7.1,16,16,0,0,1,7.61,9,12.92,12.92,0,0,0,.78,12.66a.8.8,0,0,1-.13.13.38.38,0,0,1-.53,0,.36.36,0,0,1,0-.54c.36-.35.72-.7,1.1-1a13.81,13.81,0,0,1,6.45-3,14.51,14.51,0,0,0,9.13-5.93c.46-.64.84-1.33,1.27-2A.66.66,0,0,1,18.41,0C18.62,0,18.82.14,18.82.42Z"/>
            <path d="M.37,10.93c-.13-.12-.26-.19-.32-.31a.31.31,0,0,1,.11-.43c.49-.38,1-.77,1.47-1.12A15.76,15.76,0,0,1,7.5,6.7a12.94,12.94,0,0,0,7.73-4.8c.37-.47.7-1,1-1.47l.14-.21A.38.38,0,0,1,17,.06.36.36,0,0,1,17,.61c-.19.31-.39.62-.6.92A14,14,0,0,1,9.29,7c-.92.3-1.88.48-2.82.72A14,14,0,0,0,.86,10.58Z"/>
            <path d="M5.82,22.45c-.39,0-.57-.3-.41-.58s.4-.63.61-.94a14,14,0,0,1,8.66-5.88,16.9,16.9,0,0,0,4.49-1.53,14.52,14.52,0,0,0,2.58-1.76.76.76,0,0,1,.26-.15.35.35,0,0,1,.41.19.36.36,0,0,1-.1.46c-.38.3-.75.61-1.15.89A15.81,15.81,0,0,1,15,15.76a12.82,12.82,0,0,0-7.71,4.79c-.42.53-.77,1.1-1.16,1.64A1.56,1.56,0,0,1,5.82,22.45Z"/>
            <path d="M21.34,3A1.14,1.14,0,0,1,20.2,4.12a1.13,1.13,0,0,1,0-2.25A1.14,1.14,0,0,1,21.34,3Zm-1.11-.38a.36.36,0,0,0-.38.36.37.37,0,0,0,.35.39.38.38,0,0,0,0-.75Z"/>
            <path d="M18,4.12a1.12,1.12,0,1,1-1.13,1.1A1.14,1.14,0,0,1,18,4.12Zm0,.75a.37.37,0,0,0-.36.37.37.37,0,1,0,.74,0A.36.36,0,0,0,18,4.87Z"/>
            <path d="M21.34,7.11A1.12,1.12,0,1,1,22.46,6,1.12,1.12,0,0,1,21.34,7.11Zm0-1.49a.37.37,0,1,0,.37.36A.37.37,0,0,0,21.34,5.62Z"/>
            <path d="M9.36,9.73a1.13,1.13,0,1,1-1.12,1.12A1.14,1.14,0,0,1,9.36,9.73Zm0,1.5a.38.38,0,0,0,.38-.37.38.38,0,0,0-.36-.38.37.37,0,0,0-.39.38A.38.38,0,0,0,9.36,11.23Z"/>
            <path d="M3,15a1.12,1.12,0,1,1-1.11-1.13A1.13,1.13,0,0,1,3,15ZM1.51,15a.36.36,0,0,0,.34.39.37.37,0,1,0,0-.74A.36.36,0,0,0,1.51,15Z"/>
            <path d="M6.75,13.85A1.12,1.12,0,1,1,5.62,15,1.14,1.14,0,0,1,6.75,13.85Zm0,.75a.37.37,0,1,0,0,.74A.37.37,0,0,0,7.12,15,.37.37,0,0,0,6.74,14.6Z"/>
        </g>
    </g>
</svg>