<svg xmlns="http://www.w3.org/2000/svg" viewBox="0 0 23.95 24">
    <g id="Layer_2">
        <g id="Layer_1-2">
            <path d="M8.51,0c.14.14.35.25.41.42a16.21,16.21,0,0,0,2.36,4.32c.29.4.59.8.91,1.22a6,6,0,0,1,4-4.08,5.77,5.77,0,0,1,4.11.19,6,6,0,0,1-3.73,11.37l.12.79A8.43,8.43,0,0,1,10,23.84c-.33.07-.67.11-1,.16H7.77l-.55-.09a8.35,8.35,0,0,1-7-6.5C.13,17,.08,16.52,0,16.08V14.86c0-.08,0-.15,0-.23.15-.7.25-1.43.46-2.12a13.57,13.57,0,0,1,2.15-4c1-1.3,1.95-2.57,2.91-3.87A14.89,14.89,0,0,0,7.79.51.8.8,0,0,1,8.23,0ZM8.38,1.34c-.27.54-.52,1.1-.81,1.63A31.79,31.79,0,0,1,4.74,7,28.47,28.47,0,0,0,2,11,9.1,9.1,0,0,0,.88,16.6a7.58,7.58,0,0,0,6.85,6.56,7.27,7.27,0,0,0,6.54-2.79,7.65,7.65,0,0,0,1.42-7,.48.48,0,0,0-.31-.39A6,6,0,0,1,12,7.23a.58.58,0,0,0-.12-.38A29.48,29.48,0,0,1,9.2,3C8.9,2.44,8.65,1.89,8.38,1.34ZM18,12.8a5.2,5.2,0,1,0-5.18-5.22A5.22,5.22,0,0,0,18,12.8Z"/>
            <path d="M6.71,13.36c-.21.54-.39,1-.57,1.51-.29.78-.23.74-1.06.73H3.63c-.19,0-.36-.07-.4-.26a.56.56,0,0,1,.09-.4.46.46,0,0,1,.35-.13H5.12a.23.23,0,0,0,.26-.19c.33-.9.67-1.78,1-2.68.08-.21.2-.35.44-.33s.33.18.38.39l1,4a5.4,5.4,0,0,0,.26.84c.23-.73.45-1.45.67-2.18.15-.47.29-.94.43-1.41.07-.21.15-.4.41-.42s.36.17.44.38c.19.49.39,1,.58,1.45a.23.23,0,0,0,.26.18h1.84c.32,0,.5.15.49.41s-.18.39-.48.39H10.86a.45.45,0,0,1-.48-.32c-.1-.28-.22-.55-.35-.87-.14.45-.27.86-.39,1.26L8.8,18.4c-.06.22-.16.39-.42.4S8,18.67,8,18.37L6.79,13.65C6.77,13.57,6.74,13.49,6.71,13.36Z"/>
            <path d="M20.28,4.85c-.44.66-.87,1.3-1.29,2,0,0,0,.17,0,.24a1.2,1.2,0,1,1-1-.63.3.3,0,0,0,.35-.17c.4-.61.8-1.21,1.22-1.83A3.13,3.13,0,0,0,18.48,4a3.6,3.6,0,0,0-3.14,6l0,0c.19.22.21.46,0,.62s-.41.15-.62-.06a4.24,4.24,0,0,1-1.09-2,4.38,4.38,0,0,1,3.65-5.41,4.15,4.15,0,0,1,2.5.39.32.32,0,0,0,.34,0,.36.36,0,0,1,.54.36.33.33,0,0,0,.14.31,4.4,4.4,0,0,1,.3,6.27.85.85,0,0,1-.17.16.36.36,0,0,1-.49,0,.37.37,0,0,1-.07-.49,1.92,1.92,0,0,1,.18-.22,3.61,3.61,0,0,0-.15-5ZM18.36,7.6a.38.38,0,0,0-.4-.39.39.39,0,0,0-.39.38.4.4,0,1,0,.79,0Z"/>
        </g>
    </g>
</svg>