<svg width="256" height="256" viewBox="0 0 256 256" fill="none" xmlns="http://www.w3.org/2000/svg">
<g clip-path="url(#clip0_354_19)">
<path d="M127.999 20.0423C68.3775 20.0423 20.0422 68.3781 20.0422 128.001C20.0422 187.622 68.377 235.957 127.999 235.957C187.622 235.957 235.957 187.622 235.957 128.001C235.957 68.3781 187.621 20.0423 127.999 20.0423Z" fill="#EDF3FC"/>
<path d="M128 0C57.4198 0 0 57.4203 0 128.001C0 198.58 57.4198 256 128 256C198.579 256 256 198.58 256 128.001C256 57.4203 198.579 0 128 0ZM128 251.9C59.6811 251.9 4.10052 196.319 4.10052 128.001C4.10052 59.6821 59.6811 4.10052 128 4.10052C196.317 4.10052 251.899 59.6821 251.899 128.001C251.899 196.319 196.317 251.9 128 251.9Z" fill="#EDF3FC"/>
<path d="M89.1809 59.391L90.3786 59.6912L89.1809 59.9913C82.169 61.7482 76.6971 67.2221 74.9408 74.234L74.6391 75.4302L74.3384 74.234C72.582 67.2221 67.1087 61.7482 60.0948 59.9913L58.9016 59.6912L60.0948 59.391C67.1087 57.6341 72.582 52.1587 74.3384 45.1509L74.6391 43.9557L74.9408 45.1509C76.6971 52.1587 82.169 57.6341 89.1809 59.391Z" fill="#FFBE1B"/>
<path d="M111.544 200.186L112.742 200.487L111.544 200.787C104.532 202.544 99.0604 208.018 97.304 215.029L97.0024 216.226L96.7017 215.029C94.9453 208.018 89.472 202.544 82.4581 200.787L81.2649 200.487L82.4581 200.186C89.472 198.43 94.9453 192.954 96.7017 185.946L97.0024 184.751L97.304 185.946C99.0604 192.954 104.533 198.43 111.544 200.186Z" fill="#5D8EF9"/>
<path d="M220.621 153.605L221.641 153.861L220.621 154.116C214.646 155.613 209.984 160.276 208.487 166.251L208.231 167.269L207.975 166.251C206.479 160.277 201.815 155.614 195.839 154.116L194.823 153.861L195.839 153.605C201.814 152.108 206.479 147.444 207.975 141.471L208.231 140.453L208.487 141.471C209.984 147.443 214.646 152.107 220.621 153.605Z" fill="#330D84"/>
<path d="M149.069 149.331H91.3529C84.8861 149.331 79.6457 144.089 79.6457 137.622V89.2848H68.5739C62.1082 89.2848 56.8672 94.5278 56.8672 100.99V152.807C56.8672 159.275 62.1082 164.517 68.5739 164.517L61.3959 192.945L102.01 164.517H159.726C162.506 164.517 165.058 163.546 167.066 161.928L149.069 149.331Z" fill="#5D8EF9"/>
<path d="M182.505 149.331L189.683 177.759L149.069 149.331H91.3529C84.8861 149.331 79.6456 144.089 79.6456 137.622V85.8047C79.6456 79.3419 84.8866 74.099 91.3529 74.099H182.505C188.971 74.099 194.212 79.3419 194.212 85.8047V137.622C194.212 144.09 188.971 149.331 182.505 149.331Z" fill="#330D84"/>
<path d="M112.912 118.309C117.301 116.491 119.385 111.459 117.567 107.07C115.749 102.681 110.718 100.597 106.328 102.415C101.939 104.233 99.8553 109.264 101.673 113.653C103.491 118.042 108.523 120.127 112.912 118.309Z" fill="#FFBE1B"/>
<path d="M140.225 118.308C144.614 116.49 146.698 111.458 144.88 107.069C143.062 102.68 138.03 100.596 133.641 102.414C129.252 104.232 127.168 109.264 128.986 113.653C130.804 118.042 135.836 120.126 140.225 118.308Z" fill="#FFBE1B"/>
<path d="M167.538 118.308C171.927 116.49 174.011 111.458 172.193 107.069C170.375 102.68 165.343 100.596 160.954 102.414C156.565 104.232 154.481 109.263 156.299 113.653C158.117 118.042 163.149 120.126 167.538 118.308Z" fill="#FFBE1B"/>
<path d="M133.633 183.206L134.298 183.373L133.633 183.539C129.73 184.517 126.682 187.564 125.706 191.467L125.539 192.132L125.372 191.467C124.394 187.564 121.348 184.517 117.445 183.539L116.781 183.373L117.445 183.206C121.348 182.229 124.394 179.182 125.372 175.281L125.539 174.615L125.706 175.281C126.682 179.182 129.729 182.229 133.633 183.206Z" fill="#5D8EF9"/>
</g>
<defs>
<clipPath id="clip0_354_19">
<rect width="256" height="256" fill="white"/>
</clipPath>
</defs>
</svg>
