<svg width="25" height="25" viewBox="0 0 25 25" fill="none" xmlns="http://www.w3.org/2000/svg">
<mask id="mask0_2_217" style="mask-type:alpha" maskUnits="userSpaceOnUse" x="0" y="0" width="25" height="25">
<rect x="0.190541" y="0.702194" width="24" height="24" fill="#D9D9D9"/>
</mask>
<g mask="url(#mask0_2_217)">
<path d="M5.19054 19.7022H6.61554L16.3905 9.92719L14.9655 8.50219L5.19054 18.2772V19.7022ZM3.19054 21.7022V17.4522L16.3905 4.27719C16.5905 4.09386 16.8114 3.95219 17.053 3.85219C17.2947 3.75219 17.5489 3.70219 17.8155 3.70219C18.0822 3.70219 18.3405 3.75219 18.5905 3.85219C18.8405 3.95219 19.0572 4.10219 19.2405 4.30219L20.6155 5.70219C20.8155 5.88553 20.9614 6.10219 21.053 6.35219C21.1447 6.60219 21.1905 6.85219 21.1905 7.10219C21.1905 7.36886 21.1447 7.62303 21.053 7.86469C20.9614 8.10636 20.8155 8.32719 20.6155 8.52719L7.44054 21.7022H3.19054ZM15.6655 9.22719L14.9655 8.50219L16.3905 9.92719L15.6655 9.22719Z" fill="#1C1B1F"/>
</g>
</svg>
