<svg version="1.1" id="Layer_1" xmlns="http://www.w3.org/2000/svg" xmlns:xlink="http://www.w3.org/1999/xlink" x="0px" y="0px"
	 height="24px" width="24px" viewBox="0 0 512 512" xml:space="preserve">
<path fill="#ED1B24" opacity="1.000000" stroke="none"
	d="
M513.000000,178.531342
	C511.860413,184.299759 510.898895,189.645935 509.532806,194.886658
	C508.069336,200.500961 506.225037,206.016006 504.418396,212.000000
	C500.058044,212.000000 495.416382,212.000000 490.774750,212.000000
	C463.616302,212.000000 436.456940,212.116669 409.300171,211.903442
	C403.739838,211.859802 400.155945,213.921402 398.041626,218.810379
	C391.622009,233.654556 385.287476,248.535553 378.850128,263.372009
	C377.760834,265.882507 376.326630,268.243347 374.607544,271.520111
	C370.863861,262.746643 367.411713,254.732117 364.021332,246.691544
	C359.938782,237.009567 356.210663,227.161819 351.701965,217.684189
	C349.986145,214.077423 346.780853,211.085281 341.719727,211.945312
	C337.245758,212.705566 334.078033,214.792053 332.959045,219.266541
	C329.585297,232.756943 326.229828,246.253128 323.031433,259.785858
	C320.126221,272.078064 317.465240,284.427765 314.641998,296.739624
	C312.471893,306.203094 310.232086,315.650757 307.981506,325.095520
	C307.684662,326.341278 307.140289,327.528107 306.492462,329.358521
	C303.302917,319.747437 300.242737,310.748993 297.331390,301.702698
	C292.627197,287.085815 288.039856,272.431396 283.369324,257.803619
	C273.340302,226.393356 263.276794,194.994064 253.258179,163.580460
	C251.097824,156.806641 249.147827,149.965256 246.951904,143.203384
	C245.188446,137.773239 241.519440,134.923019 236.831818,135.000595
	C232.447235,135.073135 228.481476,138.211349 227.049164,143.587219
	C221.927948,162.808365 216.952820,182.069122 212.037552,201.344254
	C205.921204,225.329391 199.924301,249.344971 193.834610,273.336945
	C193.694092,273.890594 193.063065,274.319733 192.354401,275.178131
	C190.170502,270.739197 188.072662,266.583191 186.069885,262.381866
	C181.951523,253.742493 177.878891,245.081345 173.797287,236.424484
	C171.018890,230.531708 166.489410,227.924210 159.878296,227.940308
	C113.559265,228.053040 67.239555,227.933243 20.921005,228.121094
	C17.028263,228.136856 15.263696,226.561905 14.172948,223.464188
	C11.009429,214.479889 7.813424,205.502960 4.900441,196.436295
	C3.524026,192.152191 2.764674,187.669830 1.362868,183.138641
	C1.000000,169.979111 1.000000,156.958206 1.373928,143.344055
	C2.176325,140.903214 2.620508,139.059097 3.030896,137.207504
	C8.780467,111.266563 20.662975,88.460503 38.632092,68.960106
	C50.921436,55.623497 65.521523,45.402107 81.913170,37.442036
	C109.750481,23.923748 138.981125,20.800457 168.893158,26.306204
	C187.755081,29.778013 204.658234,38.868664 219.130447,51.707508
	C235.932877,66.613556 248.158020,84.833466 256.729675,106.255936
	C258.211151,103.430733 259.582489,101.228493 260.569000,98.865585
	C265.941925,85.996544 273.432922,74.372246 282.615936,64.037430
	C300.450562,43.965866 322.063904,30.335325 349.115173,25.803036
	C365.264465,23.097311 381.191315,23.499781 397.195557,26.021269
	C411.731842,28.311470 425.512299,33.259487 438.300171,40.249180
	C456.411438,50.148567 472.085266,63.184204 484.512756,79.940239
	C495.841339,95.214546 504.513123,111.706436 508.990662,130.265991
	C510.411865,136.156876 511.668213,142.087540 513.000000,148.000000
	C513.000000,158.020889 513.000000,168.041794 513.000000,178.531342
z"/>
<path fill="#ED1B24" opacity="1.000000" stroke="none"
	d="
M412.981140,235.755890
	C414.292603,234.229630 415.571136,232.151810 416.864105,232.142792
	C442.525116,231.963638 468.187805,232.022644 493.850128,232.050461
	C494.134094,232.050766 494.417755,232.277023 495.531830,232.751144
	C490.183044,241.516815 485.497101,250.611053 479.484833,258.722168
	C470.147491,271.319183 460.393250,283.683472 449.922028,295.343781
	C437.832550,308.806091 425.041168,321.672668 412.069244,334.299286
	C394.871155,351.039551 377.015106,367.103241 359.790497,383.817047
	C343.011139,400.098816 326.566040,416.730286 310.183472,433.413696
	C302.203796,441.539886 294.722809,450.154480 286.976837,458.511658
	C277.197479,469.062622 267.378143,479.576538 256.330139,491.444855
	C253.139496,487.689545 250.256958,484.089050 247.155960,480.687683
	C239.142563,471.898102 231.186752,463.047882 222.931885,454.488068
	C200.335526,431.057098 177.889053,407.469818 154.822708,384.507477
	C136.282547,366.050903 116.813873,348.530731 97.967911,330.376282
	C86.050095,318.895752 73.824509,307.616791 62.998909,295.151489
	C50.721386,281.014374 39.843567,265.660797 28.401772,250.801773
	C27.856655,250.093872 27.742647,249.054016 27.367929,248.000168
	C69.643806,248.000168 111.636177,247.966476 153.627808,248.127182
	C155.254150,248.133408 157.638641,249.617630 158.375427,251.069870
	C164.545929,263.232239 170.436691,275.537109 176.362686,287.822723
	C179.674850,294.689423 182.848206,301.623169 186.171402,308.484406
	C188.284698,312.847626 193.922424,316.904541 197.297455,315.752594
	C201.469009,314.328766 204.913391,311.902802 206.149338,306.843628
	C210.562180,288.780121 215.328033,270.802460 220.009552,252.805084
	C226.034241,229.644302 232.106369,206.495834 238.548111,181.849731
	C241.990479,192.701019 244.985565,202.202103 248.018372,211.691147
	C256.434265,238.022720 264.863220,264.350098 273.292023,290.677521
	C280.684937,313.769440 288.067047,336.864838 295.497009,359.944855
	C296.879639,364.239777 298.486938,368.461914 299.953857,372.730255
	C301.589478,377.489532 305.329590,379.323914 309.864105,378.890167
	C314.750275,378.422729 317.845581,375.013092 318.932098,370.410004
	C324.065186,348.662872 328.990753,326.866791 333.999969,305.090363
	C337.737701,288.841431 341.490143,272.595917 345.560944,254.939529
	C349.014252,262.731415 352.048645,269.435486 354.963043,276.191284
	C358.356537,284.057678 361.669189,291.959290 364.969788,299.865326
	C366.873474,304.425385 370.018219,307.881226 375.061859,307.850311
	C380.104584,307.819427 383.114777,304.282684 385.060303,299.747131
	C393.413666,280.272858 401.838776,260.829315 410.270264,241.388702
	C411.047241,239.597198 412.054596,237.905609 412.981140,235.755890
z"/>
</svg>