<?xml version="1.0" encoding="UTF-8"?>
<svg xmlns="http://www.w3.org/2000/svg" xmlns:xlink="http://www.w3.org/1999/xlink" width="48px" height="48px" viewBox="0 0 48 48" version="1.1">
<g id="surface1">
<path style=" stroke:none;fill-rule:nonzero;fill:rgb(92.941176%,10.588235%,14.117647%);fill-opacity:1;" d="M 48.09375 16.734375 C 47.984375 17.28125 47.898438 17.78125 47.765625 18.273438 C 47.632812 18.796875 47.460938 19.3125 47.289062 19.875 C 46.882812 19.875 46.445312 19.875 46.007812 19.875 C 43.460938 19.875 40.914062 19.882812 38.375 19.867188 C 37.851562 19.859375 37.515625 20.054688 37.3125 20.515625 C 36.710938 21.90625 36.117188 23.296875 35.515625 24.6875 C 35.414062 24.929688 35.28125 25.148438 35.117188 25.453125 C 34.765625 24.632812 34.445312 23.882812 34.125 23.125 C 33.742188 22.21875 33.398438 21.296875 32.96875 20.40625 C 32.8125 20.070312 32.507812 19.789062 32.039062 19.867188 C 31.617188 19.9375 31.320312 20.140625 31.21875 20.554688 C 30.898438 21.820312 30.585938 23.085938 30.28125 24.351562 C 30.015625 25.507812 29.765625 26.664062 29.5 27.820312 C 29.296875 28.703125 29.085938 29.59375 28.875 30.476562 C 28.84375 30.59375 28.796875 30.703125 28.734375 30.875 C 28.4375 29.976562 28.148438 29.132812 27.875 28.28125 C 27.4375 26.914062 27 25.539062 26.5625 24.171875 C 25.625 21.226562 24.679688 18.28125 23.742188 15.335938 C 23.539062 14.703125 23.359375 14.0625 23.148438 13.421875 C 22.984375 12.914062 22.640625 12.648438 22.203125 12.65625 C 21.789062 12.664062 21.421875 12.960938 21.289062 13.460938 C 20.804688 15.265625 20.335938 17.070312 19.875 18.875 C 19.304688 21.125 18.742188 23.375 18.171875 25.625 C 18.15625 25.679688 18.101562 25.71875 18.03125 25.796875 C 17.828125 25.382812 17.632812 24.992188 17.445312 24.601562 C 17.054688 23.789062 16.679688 22.976562 16.296875 22.164062 C 16.03125 21.609375 15.609375 21.367188 14.992188 21.367188 C 10.648438 21.382812 6.304688 21.367188 1.960938 21.382812 C 1.59375 21.390625 1.429688 21.242188 1.328125 20.953125 C 1.03125 20.109375 0.734375 19.265625 0.460938 18.414062 C 0.328125 18.015625 0.257812 17.59375 0.125 17.171875 C 0.09375 15.9375 0.09375 14.710938 0.125 13.4375 C 0.203125 13.210938 0.242188 13.039062 0.28125 12.859375 C 0.820312 10.429688 1.9375 8.296875 3.625 6.46875 C 4.773438 5.210938 6.140625 4.257812 7.679688 3.507812 C 10.289062 2.242188 13.03125 1.953125 15.835938 2.46875 C 17.601562 2.789062 19.1875 3.640625 20.546875 4.84375 C 22.117188 6.242188 23.265625 7.953125 24.070312 9.960938 C 24.210938 9.695312 24.335938 9.492188 24.429688 9.265625 C 24.929688 8.0625 25.632812 6.96875 26.492188 6 C 28.164062 4.125 30.195312 2.84375 32.726562 2.421875 C 34.242188 2.164062 35.734375 2.203125 37.234375 2.4375 C 38.601562 2.65625 39.890625 3.117188 41.09375 3.773438 C 42.789062 4.703125 44.257812 5.921875 45.421875 7.492188 C 46.484375 8.929688 47.296875 10.46875 47.71875 12.210938 C 47.851562 12.765625 47.96875 13.320312 48.09375 13.875 C 48.09375 14.8125 48.09375 15.757812 48.09375 16.734375 Z M 48.09375 16.734375 "/>
<path style=" stroke:none;fill-rule:nonzero;fill:rgb(92.941176%,10.588235%,14.117647%);fill-opacity:1;" d="M 38.71875 22.101562 C 38.84375 21.960938 38.960938 21.765625 39.078125 21.765625 C 41.484375 21.75 43.890625 21.75 46.296875 21.757812 C 46.328125 21.757812 46.351562 21.773438 46.453125 21.820312 C 45.953125 22.640625 45.515625 23.492188 44.953125 24.257812 C 44.078125 25.4375 43.164062 26.59375 42.179688 27.6875 C 41.046875 28.953125 39.84375 30.15625 38.632812 31.34375 C 37.015625 32.90625 35.34375 34.414062 33.726562 35.984375 C 32.15625 37.507812 30.617188 39.070312 29.078125 40.632812 C 28.328125 41.390625 27.632812 42.203125 26.90625 42.984375 C 25.984375 43.976562 25.070312 44.960938 24.03125 46.070312 C 23.734375 45.71875 23.460938 45.382812 23.171875 45.0625 C 22.421875 44.242188 21.671875 43.414062 20.898438 42.609375 C 18.78125 40.414062 16.679688 38.203125 14.515625 36.046875 C 12.773438 34.320312 10.953125 32.671875 9.1875 30.976562 C 8.070312 29.898438 6.921875 28.835938 5.90625 27.671875 C 4.757812 26.34375 3.734375 24.90625 2.664062 23.515625 C 2.609375 23.445312 2.601562 23.351562 2.5625 23.25 C 6.53125 23.25 10.46875 23.25 14.40625 23.265625 C 14.554688 23.265625 14.78125 23.398438 14.851562 23.539062 C 15.429688 24.679688 15.976562 25.828125 16.53125 26.984375 C 16.84375 27.625 17.140625 28.273438 17.453125 28.921875 C 17.648438 29.328125 18.179688 29.710938 18.5 29.601562 C 18.890625 29.46875 19.210938 29.242188 19.328125 28.765625 C 19.742188 27.070312 20.1875 25.390625 20.625 23.703125 C 21.1875 21.53125 21.757812 19.359375 22.367188 17.046875 C 22.6875 18.0625 22.96875 18.953125 23.25 19.84375 C 24.039062 22.3125 24.828125 24.78125 25.625 27.25 C 26.3125 29.414062 27.007812 31.578125 27.703125 33.742188 C 27.835938 34.148438 27.984375 34.546875 28.117188 34.945312 C 28.273438 35.390625 28.625 35.5625 29.046875 35.523438 C 29.507812 35.476562 29.796875 35.15625 29.898438 34.726562 C 30.382812 32.6875 30.84375 30.640625 31.3125 28.601562 C 31.664062 27.078125 32.015625 25.554688 32.398438 23.898438 C 32.71875 24.632812 33.007812 25.257812 33.28125 25.890625 C 33.59375 26.632812 33.90625 27.375 34.21875 28.109375 C 34.390625 28.539062 34.6875 28.867188 35.164062 28.859375 C 35.632812 28.859375 35.914062 28.523438 36.101562 28.101562 C 36.882812 26.273438 37.671875 24.453125 38.460938 22.632812 C 38.539062 22.460938 38.632812 22.304688 38.71875 22.101562 Z M 38.71875 22.101562 "/>
</g>
</svg>
