<svg width="25" height="25" viewBox="0 0 25 25" fill="none" xmlns="http://www.w3.org/2000/svg">
<mask id="mask0_364_49" style="mask-type:alpha" maskUnits="userSpaceOnUse" x="0" y="0" width="25" height="25">
<rect x="0.378937" y="0.569572" width="24" height="24" fill="#D9D9D9"/>
</mask>
<g mask="url(#mask0_364_49)">
<path d="M12.3789 14.5696C11.5456 14.5696 10.8373 14.2779 10.2539 13.6946C9.6706 13.1112 9.37894 12.4029 9.37894 11.5696V5.56957C9.37894 4.73624 9.6706 4.02791 10.2539 3.44457C10.8373 2.86124 11.5456 2.56957 12.3789 2.56957C13.2123 2.56957 13.9206 2.86124 14.5039 3.44457C15.0873 4.02791 15.3789 4.73624 15.3789 5.56957V11.5696C15.3789 12.4029 15.0873 13.1112 14.5039 13.6946C13.9206 14.2779 13.2123 14.5696 12.3789 14.5696ZM11.3789 21.5696V18.4946C9.6456 18.2612 8.21227 17.4862 7.07894 16.1696C5.9456 14.8529 5.37894 13.3196 5.37894 11.5696H7.37894C7.37894 12.9529 7.86644 14.1321 8.84144 15.1071C9.81644 16.0821 10.9956 16.5696 12.3789 16.5696C13.7623 16.5696 14.9414 16.0821 15.9164 15.1071C16.8914 14.1321 17.3789 12.9529 17.3789 11.5696H19.3789C19.3789 13.3196 18.8123 14.8529 17.6789 16.1696C16.5456 17.4862 15.1123 18.2612 13.3789 18.4946V21.5696H11.3789Z" fill="#1C1B1F"/>
</g>
</svg>
