<svg width="100" height="100" viewBox="0 0 100 100" fill="none" xmlns="http://www.w3.org/2000/svg">
<g clip-path="url(#clip0_269_31)">
<mask id="mask0_269_31" style="mask-type:luminance" maskUnits="userSpaceOnUse" x="0" y="0" width="100" height="100">
<path d="M100 0H0V100H100V0Z" fill="white"/>
</mask>
<g mask="url(#mask0_269_31)">
<path d="M39.5069 66.8303L39.5373 66.8179C39.5478 66.8139 39.5592 66.8117 39.5711 66.8117L48.605 66.8103C48.6348 66.8103 48.6498 66.8251 48.6498 66.8545L48.6506 76.6101C48.6506 76.6154 48.6516 76.6207 48.6537 76.6256C48.6558 76.6306 48.6589 76.6351 48.6626 76.6389C48.6666 76.6426 48.6711 76.6456 48.6761 76.6476C48.6811 76.6498 48.6866 76.6507 48.692 76.6507L54.4897 76.6515C54.4947 76.6515 54.4997 76.6504 54.5044 76.6485C54.5091 76.6467 54.5134 76.6439 54.517 76.6404C54.5206 76.6368 54.5234 76.6326 54.5253 76.6281C54.5273 76.6234 54.5283 76.6185 54.5283 76.6135L54.5297 66.8351C54.5297 66.829 54.532 66.8229 54.5364 66.8185C54.5406 66.8142 54.5464 66.8117 54.5525 66.8117L65.1187 66.8103C65.1294 66.8103 65.1395 66.806 65.1472 66.7985C65.1547 66.791 65.1589 66.7809 65.1589 66.7703L65.1595 60.996C65.1595 60.9818 65.1537 60.9681 65.1436 60.9579C65.1333 60.9479 65.1194 60.9421 65.105 60.9421L54.558 60.9409C54.5501 60.9409 54.5426 60.9378 54.537 60.9321C54.5314 60.9265 54.5283 60.919 54.5283 60.9112L54.5269 53.157" stroke="#CDE3F8" stroke-width="0.138122"/>
<path d="M54.5269 53.1568C58.3605 51.7404 61.6173 48.9468 63.4523 45.2729C64.9994 42.1748 65.6809 38.7321 65.4952 35.2735C65.4017 33.5318 65.0228 31.8585 64.3584 30.2535C64.2728 30.0463 64.1498 29.8109 64.0511 29.5877C62.3716 25.7935 58.7866 23.2335 54.712 22.6962C53.7981 22.5755 52.78 22.5366 51.6575 22.5795C48.7162 22.6913 45.7272 23.5104 43.3031 25.1402C43.2989 25.143 43.2941 25.1446 43.2889 25.1449C43.2839 25.1452 43.2787 25.1441 43.2742 25.142C43.2697 25.1398 43.2658 25.1363 43.2628 25.1323C43.2598 25.128 43.2581 25.1232 43.2577 25.1182C43.1002 23.1616 42.0269 22.286 40.0711 22.4448C37.6581 22.6416 35.3391 23.7135 33.3412 24.9835C33.3219 24.9954 33.3172 25.0115 33.3273 25.0318L35.1995 28.7127C35.2055 28.7249 35.2073 28.7384 35.2052 28.7515C34.0305 35.8757 32.8792 43.0098 31.8273 50.154C31.3827 53.1724 31.018 56.2005 30.7334 59.2384C30.6431 60.2034 30.5759 61.1698 30.5317 62.1374C30.4241 64.5027 30.4019 67.6457 33.415 68.2535C35.5959 68.6927 37.7044 68.0609 39.5069 66.8302" stroke="#A2A2A2" stroke-width="0.138122"/>
<path d="M54.527 53.157C53.7567 53.4162 53.0822 53.6117 52.5034 53.7434C51.2953 54.0192 50.0106 54.1871 48.6492 54.2474" stroke="#70869B" stroke-width="0.138122"/>
<path d="M48.6492 54.2474C46.2334 54.3744 43.6975 54.1604 41.3653 53.4691C40.8875 53.3276 40.4366 53.166 39.978 52.9697C39.6955 52.849 39.3944 52.7508 39.1084 52.6121C39.0822 52.5996 39.0667 52.6079 39.0622 52.6369C38.7564 54.4901 38.4941 56.4366 38.2748 58.4768C38.18 59.3612 38.1187 60.1832 38.0912 60.9429" stroke="#A2A2A2" stroke-width="0.138122"/>
<path d="M38.0911 60.9429C38.0322 62.1515 38.148 63.3474 38.4386 64.5307C38.4572 64.6044 38.5166 64.6729 38.5283 64.7585C38.5905 65.2233 38.8411 65.668 39.0642 66.0962C39.1824 66.3235 39.3316 66.523 39.4814 66.7316C39.4942 66.7496 39.5016 66.7696 39.5034 66.7916L39.5069 66.8304" stroke="#70869B" stroke-width="0.138122"/>
<path d="M48.6492 54.2473L48.6464 60.8972C48.6464 60.9067 48.6427 60.9157 48.6359 60.9225C48.6292 60.9292 48.62 60.9331 48.6105 60.9331L38.0912 60.9426" stroke="#CDE3F8" stroke-width="0.138122"/>
<path d="M45.6042 27.9041C44.6616 28.19 43.7466 28.5774 42.8398 29.038C42.8303 29.043 42.8222 29.05 42.8159 29.0586C42.8097 29.0674 42.8056 29.0772 42.8039 29.0879L39.6851 48.5996C39.6805 48.6268 39.6908 48.6458 39.7162 48.6569C40.2056 48.8658 40.5602 48.9988 40.7797 49.0553C43.7383 49.8191 47.0719 49.7743 49.9669 48.7563C53.6416 47.4643 56.3405 44.4546 57.3177 40.7066C57.9697 38.2052 57.9634 35.2846 57.0462 32.7977C56.3322 30.8593 55.0091 29.1535 53.1305 28.2985C52.4225 27.9761 51.6839 27.7513 50.915 27.6236C49.1409 27.3296 47.3328 27.3799 45.6042 27.9041Z" stroke="#A2A2A2" stroke-width="0.138122"/>
<path d="M0 0H100V100H0V0ZM39.5069 66.8302L39.5373 66.8177C39.5478 66.8136 39.5592 66.8114 39.5711 66.8114L48.605 66.8102C48.6348 66.8102 48.6498 66.8248 48.6498 66.8542L48.6506 76.6098C48.6506 76.6152 48.6516 76.6205 48.6537 76.6255C48.6558 76.6303 48.6589 76.6348 48.6627 76.6386C48.6666 76.6423 48.6711 76.6455 48.6761 76.6475C48.6811 76.6495 48.6866 76.6506 48.692 76.6506L54.4897 76.6513C54.4947 76.6513 54.4997 76.6503 54.5044 76.6483C54.5091 76.6464 54.5134 76.6436 54.517 76.6402C54.5206 76.6366 54.5234 76.6323 54.5253 76.6278C54.5273 76.6231 54.5283 76.6183 54.5283 76.6133L54.5297 66.835C54.5297 66.8287 54.532 66.8228 54.5364 66.8183C54.5406 66.8139 54.5464 66.8114 54.5525 66.8114L65.1187 66.8102C65.1294 66.8102 65.1395 66.8059 65.1472 66.7983C65.1547 66.7908 65.1589 66.7806 65.1589 66.77L65.1595 60.9958C65.1595 60.9816 65.1537 60.9678 65.1436 60.9578C65.1333 60.9477 65.1194 60.942 65.105 60.942L54.558 60.9406C54.5502 60.9406 54.5427 60.9375 54.537 60.9319C54.5314 60.9264 54.5283 60.9188 54.5283 60.9109L54.5269 53.1567C58.3605 51.7403 61.6173 48.9469 63.4523 45.2728C64.9994 42.1747 65.6809 38.732 65.4952 35.2734C65.4017 33.5317 65.0228 31.8584 64.3584 30.2534C64.2728 30.0462 64.1498 29.8108 64.0511 29.5877C62.3716 25.7934 58.7866 23.2334 54.712 22.6961C53.7981 22.5755 52.78 22.5366 51.6575 22.5794C48.7161 22.6912 45.7272 23.5103 43.3031 25.1402C43.2989 25.143 43.2941 25.1445 43.2889 25.1448C43.2839 25.1452 43.2787 25.1441 43.2742 25.1419C43.2697 25.1397 43.2656 25.1364 43.2628 25.1322C43.2598 25.128 43.2581 25.1231 43.2577 25.1181C43.1002 23.1616 42.0269 22.2859 40.0711 22.4447C37.6581 22.6416 35.3391 23.7134 33.3411 24.9834C33.3219 24.9955 33.3172 25.0116 33.3273 25.0317L35.1995 28.7127C35.2055 28.7248 35.2073 28.7384 35.2052 28.7514C34.0303 35.8756 32.8792 43.0097 31.8273 50.1541C31.3827 53.1725 31.018 56.2005 30.7334 59.2383C30.6431 60.2033 30.5759 61.1697 30.5317 62.1375C30.4241 64.5028 30.4019 67.6458 33.415 68.2534C35.5959 68.6927 37.7044 68.0608 39.5069 66.8302Z" fill="white"/>
<path d="M54.5269 53.1568C53.7567 53.416 53.0822 53.6115 52.5034 53.7432C51.2953 54.019 50.0106 54.187 48.6492 54.2473C46.2334 54.3743 43.6975 54.1602 41.3653 53.469C40.8875 53.3274 40.4364 53.1659 39.978 52.9696C39.6955 52.8488 39.3944 52.7507 39.1084 52.612C39.0822 52.5995 39.0667 52.6077 39.0622 52.6368C38.7564 54.4899 38.4941 56.4365 38.2748 58.4766C38.18 59.361 38.1187 60.183 38.0912 60.9427C38.0322 62.1513 38.148 63.3473 38.4386 64.5304C38.4572 64.6043 38.5166 64.6727 38.5283 64.7584C38.5905 65.223 38.8412 65.6679 39.0642 66.096C39.1823 66.3232 39.3316 66.5229 39.4814 66.7313C39.4942 66.7493 39.5016 66.7695 39.5034 66.7915L39.5069 66.8302C37.7044 68.0609 35.5959 68.6927 33.415 68.2535C30.4019 67.6457 30.4241 64.5027 30.5317 62.1374C30.5759 61.1698 30.6431 60.2034 30.7334 59.2384C31.018 56.2005 31.3827 53.1724 31.8273 50.154C32.8792 43.0098 34.0305 35.8757 35.2052 28.7515C35.2073 28.7384 35.2055 28.7249 35.1995 28.7127L33.3273 25.0318C33.3172 25.0115 33.3219 24.9954 33.3412 24.9835C35.3391 23.7135 37.6581 22.6416 40.0711 22.4448C42.0269 22.286 43.1002 23.1616 43.2577 25.1182C43.2581 25.1232 43.2598 25.128 43.2628 25.1323C43.2658 25.1363 43.2697 25.1398 43.2742 25.142C43.2787 25.1441 43.2839 25.1452 43.2889 25.1449C43.2941 25.1446 43.2989 25.143 43.3031 25.1402C45.7272 23.5104 48.7162 22.6913 51.6575 22.5795C52.78 22.5366 53.7981 22.5755 54.712 22.6962C58.7866 23.2335 62.3716 25.7935 64.0511 29.5877C64.1498 29.8109 64.2728 30.0463 64.3584 30.2535C65.0228 31.8585 65.4017 33.5318 65.4952 35.2735C65.6809 38.7321 64.9994 42.1748 63.4523 45.2729C61.6173 48.9468 58.3605 51.7404 54.5269 53.1568ZM45.6042 27.904C44.6616 28.1899 43.7466 28.5774 42.8398 29.038C42.8303 29.0429 42.8222 29.0501 42.8159 29.0587C42.8097 29.0673 42.8056 29.0773 42.8039 29.0877L39.6852 48.5995C39.6805 48.6266 39.6908 48.6457 39.7162 48.6568C40.2056 48.8659 40.5602 48.9987 40.7797 49.0552C43.7383 49.8191 47.0719 49.7743 49.9669 48.7563C53.6416 47.4641 56.3405 44.4545 57.3177 40.7065C57.9697 38.2052 57.9634 35.2846 57.0463 32.7977C56.3322 30.8591 55.0091 29.1534 53.1305 28.2984C52.4225 27.9762 51.6839 27.7512 50.915 27.6237C49.1409 27.3295 47.3328 27.3799 45.6042 27.904Z" fill="#454545"/>
<path d="M45.6042 27.9039C47.3328 27.3797 49.1409 27.3292 50.915 27.6235C51.6839 27.751 52.4223 27.976 53.1305 28.2981C55.0089 29.1531 56.3322 30.8589 57.0463 32.7975C57.9634 35.2844 57.9695 38.205 57.3177 40.7063C56.3405 44.4542 53.6416 47.4639 49.9669 48.7561C47.0719 49.7741 43.7383 49.8189 40.7797 49.055C40.56 48.9985 40.2056 48.8656 39.7161 48.6566C39.6908 48.6455 39.6805 48.6264 39.685 48.5992L42.8039 29.0875C42.8056 29.077 42.8097 29.067 42.8159 29.0585C42.8222 29.0499 42.8303 29.0427 42.8398 29.0378C43.7466 28.5772 44.6616 28.1897 45.6042 27.9039Z" fill="white"/>
<path d="M48.6492 54.2472L48.6464 60.897C48.6464 60.9066 48.6427 60.9156 48.6359 60.9224C48.6292 60.9292 48.62 60.933 48.6105 60.933L38.0911 60.9427C38.1188 60.183 38.18 59.361 38.2748 58.4764C38.4941 56.4364 38.7564 54.4899 39.0622 52.6367C39.0667 52.6077 39.0822 52.5994 39.1084 52.6117C39.3944 52.7506 39.6955 52.8488 39.978 52.9696C40.4364 53.1656 40.8875 53.3272 41.3653 53.4689C43.6975 54.1602 46.2334 54.3742 48.6492 54.2472Z" fill="white"/>
<path d="M54.5269 53.1567L54.5283 60.9108C54.5283 60.9188 54.5314 60.9263 54.537 60.9319C54.5427 60.9374 54.5502 60.9405 54.558 60.9405L65.105 60.9419C65.1194 60.9419 65.1333 60.9475 65.1436 60.9577C65.1538 60.9678 65.1595 60.9814 65.1595 60.9958L65.1589 66.7699C65.1589 66.7805 65.1547 66.7908 65.1472 66.7983C65.1395 66.8058 65.1294 66.81 65.1188 66.81L54.5525 66.8114C54.5464 66.8114 54.5406 66.8139 54.5364 66.8183C54.532 66.8227 54.5297 66.8286 54.5297 66.8349L54.5283 76.6131C54.5283 76.6181 54.5273 76.6231 54.5253 76.6277C54.5234 76.6324 54.5206 76.6364 54.517 76.64C54.5134 76.6436 54.5091 76.6464 54.5044 76.6483C54.4997 76.6502 54.4947 76.6511 54.4897 76.6511L48.692 76.6505C48.6866 76.6505 48.6811 76.6494 48.6761 76.6474C48.6711 76.6453 48.6666 76.6424 48.6627 76.6385C48.6589 76.6347 48.6558 76.6303 48.6538 76.6253C48.6516 76.6203 48.6506 76.615 48.6506 76.6097L48.6499 66.8542C48.6499 66.8247 48.6349 66.81 48.605 66.81L39.5711 66.8114C39.5592 66.8114 39.5478 66.8135 39.5373 66.8175L39.5069 66.83L39.5034 66.7914C39.5016 66.7692 39.4942 66.7492 39.4814 66.7313C39.3316 66.5227 39.1824 66.3231 39.0642 66.096C38.8411 65.6677 38.5905 65.223 38.5283 64.7581C38.5166 64.6725 38.4572 64.6042 38.4386 64.5303C38.148 63.347 38.0322 62.1511 38.0911 60.9425L48.6105 60.933C48.62 60.933 48.6292 60.9291 48.6359 60.9224C48.6427 60.9156 48.6464 60.9066 48.6464 60.897L48.6492 54.2472C50.0106 54.1869 51.2953 54.0188 52.5034 53.743C53.0822 53.6113 53.7567 53.416 54.5269 53.1567Z" fill="#9AC7F0"/>
</g>
</g>
<defs>
<clipPath id="clip0_269_31">
<rect width="100" height="100" rx="50" fill="white"/>
</clipPath>
</defs>
</svg>
