<svg width="200" height="200" viewBox="0 0 200 200" fill="none" xmlns="http://www.w3.org/2000/svg">
<g clip-path="url(#clip0_269_31)">
<mask id="mask0_269_31" style="mask-type:luminance" maskUnits="userSpaceOnUse" x="0" y="0" width="200" height="200">
<path d="M200 0H0V200H200V0Z" fill="white"/>
</mask>
<g mask="url(#mask0_269_31)">
<path d="M79.0138 133.661L79.0747 133.636C79.0956 133.628 79.1184 133.623 79.1422 133.623L97.21 133.621C97.2697 133.621 97.2997 133.65 97.2997 133.709L97.3013 153.22C97.3013 153.231 97.3031 153.241 97.3075 153.251C97.3116 153.261 97.3178 153.27 97.3253 153.278C97.3331 153.285 97.3422 153.291 97.3522 153.295C97.3622 153.3 97.3731 153.301 97.3841 153.301L108.979 153.303C108.989 153.303 108.999 153.301 109.009 153.297C109.018 153.293 109.027 153.288 109.034 153.281C109.041 153.274 109.047 153.265 109.051 153.256C109.055 153.247 109.057 153.237 109.057 153.227L109.059 133.67C109.059 133.658 109.064 133.646 109.073 133.637C109.081 133.628 109.093 133.623 109.105 133.623L130.238 133.621C130.259 133.621 130.279 133.612 130.294 133.597C130.309 133.582 130.318 133.562 130.318 133.541L130.319 121.992C130.319 121.964 130.308 121.936 130.287 121.916C130.267 121.896 130.239 121.884 130.21 121.884L109.116 121.882C109.1 121.882 109.085 121.876 109.074 121.864C109.063 121.853 109.057 121.838 109.057 121.822L109.054 106.314" stroke="#CDE3F8" stroke-width="0.138122"/>
<path d="M109.054 106.314C116.721 103.481 123.235 97.8938 126.905 90.546C129.999 84.3498 131.362 77.4645 130.99 70.5473C130.803 67.0638 130.046 63.7173 128.717 60.5073C128.546 60.0929 128.3 59.622 128.102 59.1757C124.743 51.5873 117.573 46.4673 109.424 45.3926C107.596 45.1513 105.56 45.0735 103.315 45.1591C97.4325 45.3829 91.4544 47.021 86.6062 50.2807C86.5978 50.2863 86.5881 50.2895 86.5778 50.2901C86.5678 50.2907 86.5575 50.2885 86.5484 50.2842C86.5394 50.2798 86.5316 50.2729 86.5256 50.2648C86.5197 50.2563 86.5162 50.2467 86.5153 50.2367C86.2003 46.3235 84.0537 44.5723 80.1422 44.8898C75.3162 45.2835 70.6781 47.4273 66.6825 49.9673C66.6437 49.991 66.6344 50.0232 66.6547 50.0638L70.3991 57.4257C70.4109 57.4501 70.4147 57.477 70.4103 57.5032C68.0609 71.7516 65.7584 86.0198 63.6547 100.308C62.7653 106.345 62.0359 112.401 61.4669 118.477C61.2862 120.407 61.1519 122.34 61.0634 124.275C60.8481 129.006 60.8037 135.292 66.83 136.507C71.1919 137.386 75.4087 136.122 79.0137 133.661" stroke="#A2A2A2" stroke-width="0.138122"/>
<path d="M109.054 106.314C107.513 106.832 106.164 107.223 105.007 107.487C102.591 108.038 100.021 108.374 97.2984 108.495" stroke="#70869B" stroke-width="0.138122"/>
<path d="M97.2984 108.495C92.4669 108.749 87.395 108.321 82.7306 106.938C81.775 106.655 80.8731 106.332 79.9559 105.94C79.3909 105.698 78.7887 105.502 78.2169 105.224C78.1644 105.199 78.1334 105.216 78.1244 105.274C77.5128 108.98 76.9881 112.873 76.5497 116.954C76.36 118.723 76.2375 120.367 76.1825 121.886" stroke="#A2A2A2" stroke-width="0.138122"/>
<path d="M76.1822 121.886C76.0644 124.303 76.296 126.695 76.8772 129.061C76.9144 129.209 77.0331 129.346 77.0566 129.517C77.1809 130.447 77.6822 131.336 78.1285 132.192C78.3647 132.647 78.6631 133.046 78.9628 133.463C78.9885 133.499 79.0031 133.539 79.0069 133.583L79.0138 133.661" stroke="#70869B" stroke-width="0.138122"/>
<path d="M97.2984 108.495L97.2928 121.794C97.2928 121.813 97.2853 121.831 97.2719 121.845C97.2584 121.858 97.24 121.866 97.2209 121.866L76.1825 121.885" stroke="#CDE3F8" stroke-width="0.138122"/>
<path d="M91.2084 55.8084C89.3231 56.3803 87.4931 57.155 85.6797 58.0763C85.6606 58.0863 85.6444 58.1003 85.6319 58.1175C85.6194 58.135 85.6112 58.1547 85.6078 58.1759L79.3703 97.1994C79.3609 97.2538 79.3815 97.2919 79.4325 97.3141C80.4112 97.7319 81.1203 97.9978 81.5594 98.1109C87.4766 99.6384 94.1437 99.5488 99.9337 97.5128C107.283 94.9288 112.681 88.9094 114.635 81.4134C115.939 76.4106 115.927 70.5694 114.092 65.5956C112.664 61.7188 110.018 58.3072 106.261 56.5972C104.845 55.9525 103.368 55.5028 101.83 55.2475C98.2819 54.6594 94.6656 54.76 91.2084 55.8084Z" stroke="#A2A2A2" stroke-width="0.138122"/>
<path d="M0 0H200V200H0V0ZM79.0138 133.66L79.0747 133.635C79.0956 133.627 79.1184 133.623 79.1422 133.623L97.21 133.62C97.2697 133.62 97.2997 133.65 97.2997 133.708L97.3013 153.22C97.3013 153.23 97.3031 153.241 97.3075 153.251C97.3116 153.261 97.3178 153.27 97.3253 153.277C97.3331 153.285 97.3422 153.291 97.3522 153.295C97.3622 153.299 97.3731 153.301 97.3841 153.301L108.979 153.303C108.989 153.303 108.999 153.301 109.009 153.297C109.018 153.293 109.027 153.287 109.034 153.28C109.041 153.273 109.047 153.265 109.051 153.256C109.055 153.246 109.057 153.237 109.057 153.227L109.059 133.67C109.059 133.657 109.064 133.646 109.073 133.637C109.081 133.628 109.093 133.623 109.105 133.623L130.237 133.62C130.259 133.62 130.279 133.612 130.294 133.597C130.309 133.582 130.318 133.561 130.318 133.54L130.319 121.992C130.319 121.963 130.307 121.936 130.287 121.916C130.267 121.895 130.239 121.884 130.21 121.884L109.116 121.881C109.1 121.881 109.085 121.875 109.074 121.864C109.063 121.853 109.057 121.838 109.057 121.822L109.054 106.313C116.721 103.481 123.235 97.8937 126.905 90.5456C129.999 84.3494 131.362 77.4641 130.99 70.5469C130.803 67.0634 130.046 63.7169 128.717 60.5069C128.546 60.0925 128.3 59.6216 128.102 59.1753C124.743 51.5869 117.573 46.4669 109.424 45.3922C107.596 45.1509 105.56 45.0731 103.315 45.1587C97.4322 45.3825 91.4544 47.0206 86.6063 50.2803C86.5978 50.2859 86.5881 50.2891 86.5778 50.2897C86.5678 50.2903 86.5575 50.2881 86.5484 50.2837C86.5394 50.2794 86.5312 50.2728 86.5256 50.2644C86.5197 50.2559 86.5163 50.2462 86.5153 50.2362C86.2003 46.3231 84.0538 44.5719 80.1422 44.8894C75.3163 45.2831 70.6781 47.4269 66.6822 49.9669C66.6438 49.9909 66.6344 50.0231 66.6547 50.0634L70.3991 57.4253C70.4109 57.4497 70.4147 57.4769 70.4103 57.5028C68.0606 71.7513 65.7584 86.0194 63.6547 100.308C62.7653 106.345 62.0359 112.401 61.4669 118.477C61.2862 120.407 61.1519 122.339 61.0634 124.275C60.8481 129.006 60.8037 135.292 66.83 136.507C71.1919 137.385 75.4088 136.122 79.0138 133.66Z" fill="white"/>
<path d="M109.054 106.314C107.513 106.832 106.164 107.223 105.007 107.487C102.591 108.038 100.021 108.374 97.2984 108.495C92.4669 108.749 87.395 108.321 82.7306 106.938C81.775 106.655 80.8728 106.332 79.9559 105.939C79.3909 105.698 78.7887 105.502 78.2169 105.224C78.1644 105.199 78.1334 105.216 78.1244 105.274C77.5128 108.98 76.9881 112.873 76.5497 116.954C76.36 118.722 76.2375 120.366 76.1825 121.886C76.0644 124.303 76.2959 126.695 76.8772 129.061C76.9144 129.209 77.0331 129.346 77.0566 129.517C77.1809 130.446 77.6825 131.336 78.1284 132.192C78.3647 132.647 78.6631 133.046 78.9628 133.463C78.9884 133.499 79.0031 133.539 79.0069 133.583L79.0137 133.661C75.4087 136.122 71.1919 137.386 66.83 136.507C60.8037 135.292 60.8481 129.006 61.0634 124.275C61.1519 122.34 61.2862 120.407 61.4669 118.477C62.0359 112.401 62.7653 106.345 63.6547 100.308C65.7584 86.0198 68.0609 71.7516 70.4103 57.5032C70.4147 57.477 70.4109 57.4501 70.3991 57.4257L66.6547 50.0638C66.6344 50.0232 66.6437 49.991 66.6825 49.9673C70.6781 47.4273 75.3162 45.2835 80.1422 44.8898C84.0537 44.5723 86.2003 46.3235 86.5153 50.2367C86.5162 50.2467 86.5197 50.2563 86.5256 50.2648C86.5316 50.2729 86.5394 50.2798 86.5484 50.2842C86.5575 50.2885 86.5678 50.2907 86.5778 50.2901C86.5881 50.2895 86.5978 50.2863 86.6062 50.2807C91.4544 47.021 97.4325 45.3829 103.315 45.1591C105.56 45.0735 107.596 45.1513 109.424 45.3926C117.573 46.4673 124.743 51.5873 128.102 59.1757C128.3 59.622 128.546 60.0929 128.717 60.5073C130.046 63.7173 130.803 67.0638 130.99 70.5473C131.362 77.4645 129.999 84.3498 126.905 90.546C123.235 97.8938 116.721 103.481 109.054 106.314ZM91.2084 55.8082C89.3231 56.3801 87.4931 57.1551 85.6797 58.0763C85.6606 58.086 85.6444 58.1004 85.6319 58.1176C85.6194 58.1348 85.6112 58.1548 85.6078 58.1757L79.3703 97.1991C79.3609 97.2535 79.3816 97.2916 79.4325 97.3138C80.4112 97.732 81.1203 97.9976 81.5594 98.1107C87.4766 99.6385 94.1437 99.5488 99.9337 97.5129C107.283 94.9285 112.681 88.9092 114.635 81.4132C115.939 76.4107 115.927 70.5695 114.093 65.5957C112.664 61.7185 110.018 58.307 106.261 56.597C104.845 55.9526 103.368 55.5026 101.83 55.2476C98.2819 54.6591 94.6656 54.7601 91.2084 55.8082Z" fill="#454545"/>
<path d="M91.2084 55.8078C94.6656 54.7594 98.2819 54.6585 101.83 55.2469C103.368 55.5019 104.845 55.9519 106.261 56.5963C110.018 58.3063 112.664 61.7178 114.093 65.595C115.927 70.5688 115.939 76.41 114.635 81.4125C112.681 88.9085 107.283 94.9278 99.9337 97.5122C94.1437 99.5482 87.4766 99.6378 81.5594 98.11C81.12 97.9969 80.4112 97.7313 79.4322 97.3132C79.3816 97.291 79.3609 97.2528 79.37 97.1985L85.6078 58.175C85.6112 58.1541 85.6194 58.1341 85.6319 58.1169C85.6444 58.0997 85.6606 58.0853 85.6797 58.0757C87.4931 57.1544 89.3231 56.3794 91.2084 55.8078Z" fill="white"/>
<path d="M97.2984 108.494L97.2928 121.794C97.2928 121.813 97.2853 121.831 97.2719 121.845C97.2584 121.858 97.24 121.866 97.2209 121.866L76.1822 121.885C76.2375 120.366 76.36 118.722 76.5497 116.953C76.9881 112.873 77.5128 108.98 78.1244 105.273C78.1334 105.215 78.1644 105.199 78.2169 105.223C78.7888 105.501 79.3909 105.698 79.9559 105.939C80.8728 106.331 81.775 106.654 82.7306 106.938C87.395 108.32 92.4669 108.748 97.2984 108.494Z" fill="white"/>
<path d="M109.054 106.313L109.057 121.822C109.057 121.838 109.063 121.853 109.074 121.864C109.085 121.875 109.1 121.881 109.116 121.881L130.21 121.884C130.239 121.884 130.267 121.895 130.287 121.915C130.308 121.936 130.319 121.963 130.319 121.992L130.318 133.54C130.318 133.561 130.309 133.582 130.294 133.597C130.279 133.612 130.259 133.62 130.238 133.62L109.105 133.623C109.093 133.623 109.081 133.628 109.073 133.637C109.064 133.645 109.059 133.657 109.059 133.67L109.057 153.226C109.057 153.236 109.055 153.246 109.051 153.255C109.047 153.265 109.041 153.273 109.034 153.28C109.027 153.287 109.018 153.293 109.009 153.297C108.999 153.3 108.989 153.302 108.979 153.302L97.3841 153.301C97.3731 153.301 97.3622 153.299 97.3522 153.295C97.3422 153.291 97.3331 153.285 97.3253 153.277C97.3178 153.269 97.3116 153.261 97.3075 153.251C97.3031 153.241 97.3013 153.23 97.3013 153.219L97.2997 133.708C97.2997 133.649 97.2697 133.62 97.21 133.62L79.1422 133.623C79.1185 133.623 79.0956 133.627 79.0747 133.635L79.0138 133.66L79.0069 133.583C79.0031 133.538 78.9885 133.498 78.9628 133.463C78.6631 133.045 78.3647 132.646 78.1285 132.192C77.6822 131.335 77.181 130.446 77.0566 129.516C77.0331 129.345 76.9144 129.208 76.8772 129.061C76.296 126.694 76.0644 124.302 76.1822 121.885L97.221 121.866C97.24 121.866 97.2585 121.858 97.2719 121.845C97.2853 121.831 97.2928 121.813 97.2928 121.794L97.2984 108.494C100.021 108.374 102.591 108.038 105.007 107.486C106.164 107.223 107.513 106.832 109.054 106.313Z" fill="#9AC7F0"/>
</g>
</g>
<defs>
<clipPath id="clip0_269_31">
<rect width="200" height="200" rx="100" fill="white"/>
</clipPath>
</defs>
</svg>
