<?xml version="1.0" encoding="UTF-8" standalone="no"?>
<!DOCTYPE svg PUBLIC "-//W3C//DTD SVG 1.1//EN" "http://www.w3.org/Graphics/SVG/1.1/DTD/svg11.dtd">
<svg xmlns="http://www.w3.org/2000/svg" version="1.1" viewBox="0.00 0.00 1448.00 1448.00">
<g stroke-width="2.00" fill="none" stroke-linecap="butt">
<path stroke="#cde3f8" vector-effect="non-scaling-stroke" d="
  M 572.06 967.70
  L 572.50 967.52
  A 1.42 1.24 30.6 0 1 572.99 967.43
  L 703.80 967.41
  Q 704.45 967.41 704.45 968.05
  L 704.46 1109.31
  A 0.60 0.59 0.0 0 0 705.06 1109.90
  L 789.01 1109.91
  A 0.56 0.55 0.0 0 0 789.57 1109.36
  L 789.59 967.77
  A 0.34 0.33 90.0 0 1 789.92 967.43
  L 942.92 967.41
  A 0.58 0.58 0.0 0 0 943.50 966.83
  L 943.51 883.22
  A 0.79 0.78 -0.0 0 0 942.72 882.44
  L 790.00 882.42
  A 0.43 0.43 0.0 0 1 789.57 881.99
  L 789.55 769.71"
/>
<path stroke="#a2a2a2" vector-effect="non-scaling-stroke" d="
  M 789.55 769.71
  C 845.06 749.20 892.22 708.75 918.79 655.55
  C 941.19 610.69 951.06 560.84 948.37 510.76
  Q 946.34 472.93 931.91 438.07
  C 930.67 435.07 928.89 431.66 927.46 428.43
  C 903.14 373.49 851.23 336.42 792.23 328.64
  Q 772.38 326.02 748.00 326.95
  C 705.41 328.57 662.13 340.43 627.03 364.03
  A 0.43 0.43 0.0 0 1 626.37 363.71
  C 624.09 335.38 608.55 322.70 580.23 325.00
  C 545.29 327.85 511.71 343.37 482.78 361.76
  Q 482.36 362.02 482.58 362.46
  L 509.69 415.76
  A 0.94 0.91 37.8 0 1 509.77 416.32
  C 492.76 519.48 476.09 622.78 460.86 726.23
  Q 451.20 791.79 445.02 857.77
  Q 443.06 878.73 442.10 899.75
  C 440.54 934.00 440.22 979.51 483.85 988.31
  C 515.43 994.67 545.96 985.52 572.06 967.70"
/>
<path stroke="#70869b" vector-effect="non-scaling-stroke" d="
  M 789.55 769.71
  Q 772.82 775.34 760.25 778.20
  Q 734.01 784.19 704.44 785.50"
/>
<path stroke="#a2a2a2" vector-effect="non-scaling-stroke" d="
  M 704.44 785.50
  C 669.46 787.34 632.74 784.24 598.97 774.23
  C 592.05 772.18 585.52 769.84 578.88 767.00
  C 574.79 765.25 570.43 763.83 566.29 761.82
  Q 565.72 761.55 565.62 762.18
  Q 558.98 802.43 554.22 846.74
  Q 552.16 865.95 551.56 882.45"
/>
<path stroke="#70869b" vector-effect="non-scaling-stroke" d="
  M 551.56 882.45
  Q 550.28 908.70 556.59 934.40
  C 556.86 935.47 557.72 936.46 557.89 937.70
  C 558.79 944.43 562.42 950.87 565.65 957.07
  C 567.36 960.36 569.52 963.25 571.69 966.27
  Q 571.97 966.66 572.01 967.14
  L 572.06 967.70"
/>
<path stroke="#cde3f8" vector-effect="non-scaling-stroke" d="
  M 704.44 785.50
  L 704.40 881.79
  A 0.52 0.52 0.0 0 1 703.88 882.31
  L 551.56 882.45"
/>
<path stroke="#a2a2a2" vector-effect="non-scaling-stroke" d="
  M 660.35 404.05
  C 646.70 408.19 633.45 413.80 620.32 420.47
  A 0.99 0.99 0.0 0 0 619.80 421.19
  L 574.64 703.72
  Q 574.54 704.31 575.09 704.55
  Q 585.72 709.09 590.49 710.32
  C 633.33 721.38 681.60 720.73 723.52 705.99
  C 776.73 687.28 815.81 643.70 829.96 589.43
  C 839.40 553.21 839.31 510.92 826.03 474.91
  C 815.69 446.84 796.53 422.14 769.33 409.76
  Q 753.95 402.76 737.25 399.99
  C 711.56 395.73 685.38 396.46 660.35 404.05"
/>
</g>
<path fill="#ffffff" d="
  M 0.00 0.00
  L 1448.00 0.00
  L 1448.00 1448.00
  L 0.00 1448.00
  L 0.00 0.00
  Z
  M 572.06 967.70
  L 572.50 967.52
  A 1.42 1.24 30.6 0 1 572.99 967.43
  L 703.80 967.41
  Q 704.45 967.41 704.45 968.05
  L 704.46 1109.31
  A 0.60 0.59 0.0 0 0 705.06 1109.90
  L 789.01 1109.91
  A 0.56 0.55 0.0 0 0 789.57 1109.36
  L 789.59 967.77
  A 0.34 0.33 90.0 0 1 789.92 967.43
  L 942.92 967.41
  A 0.58 0.58 0.0 0 0 943.50 966.83
  L 943.51 883.22
  A 0.79 0.78 -0.0 0 0 942.72 882.44
  L 790.00 882.42
  A 0.43 0.43 0.0 0 1 789.57 881.99
  L 789.55 769.71
  C 845.06 749.20 892.22 708.75 918.79 655.55
  C 941.19 610.69 951.06 560.84 948.37 510.76
  Q 946.34 472.93 931.91 438.07
  C 930.67 435.07 928.89 431.66 927.46 428.43
  C 903.14 373.49 851.23 336.42 792.23 328.64
  Q 772.38 326.02 748.00 326.95
  C 705.41 328.57 662.13 340.43 627.03 364.03
  A 0.43 0.43 0.0 0 1 626.37 363.71
  C 624.09 335.38 608.55 322.70 580.23 325.00
  C 545.29 327.85 511.71 343.37 482.78 361.76
  Q 482.36 362.02 482.58 362.46
  L 509.69 415.76
  A 0.94 0.91 37.8 0 1 509.77 416.32
  C 492.76 519.48 476.09 622.78 460.86 726.23
  Q 451.20 791.79 445.02 857.77
  Q 443.06 878.73 442.10 899.75
  C 440.54 934.00 440.22 979.51 483.85 988.31
  C 515.43 994.67 545.96 985.52 572.06 967.70
  Z"
/>
<path fill="#454545" d="
  M 789.55 769.71
  Q 772.82 775.34 760.25 778.20
  Q 734.01 784.19 704.44 785.50
  C 669.46 787.34 632.74 784.24 598.97 774.23
  C 592.05 772.18 585.52 769.84 578.88 767.00
  C 574.79 765.25 570.43 763.83 566.29 761.82
  Q 565.72 761.55 565.62 762.18
  Q 558.98 802.43 554.22 846.74
  Q 552.16 865.95 551.56 882.45
  Q 550.28 908.70 556.59 934.40
  C 556.86 935.47 557.72 936.46 557.89 937.70
  C 558.79 944.43 562.42 950.87 565.65 957.07
  C 567.36 960.36 569.52 963.25 571.69 966.27
  Q 571.97 966.66 572.01 967.14
  L 572.06 967.70
  C 545.96 985.52 515.43 994.67 483.85 988.31
  C 440.22 979.51 440.54 934.00 442.10 899.75
  Q 443.06 878.73 445.02 857.77
  Q 451.20 791.79 460.86 726.23
  C 476.09 622.78 492.76 519.48 509.77 416.32
  A 0.94 0.91 37.8 0 0 509.69 415.76
  L 482.58 362.46
  Q 482.36 362.02 482.78 361.76
  C 511.71 343.37 545.29 327.85 580.23 325.00
  C 608.55 322.70 624.09 335.38 626.37 363.71
  A 0.43 0.43 0.0 0 0 627.03 364.03
  C 662.13 340.43 705.41 328.57 748.00 326.95
  Q 772.38 326.02 792.23 328.64
  C 851.23 336.42 903.14 373.49 927.46 428.43
  C 928.89 431.66 930.67 435.07 931.91 438.07
  Q 946.34 472.93 948.37 510.76
  C 951.06 560.84 941.19 610.69 918.79 655.55
  C 892.22 708.75 845.06 749.20 789.55 769.71
  Z
  M 660.35 404.05
  C 646.70 408.19 633.45 413.80 620.32 420.47
  A 0.99 0.99 0.0 0 0 619.80 421.19
  L 574.64 703.72
  Q 574.54 704.31 575.09 704.55
  Q 585.72 709.09 590.49 710.32
  C 633.33 721.38 681.60 720.73 723.52 705.99
  C 776.73 687.28 815.81 643.70 829.96 589.43
  C 839.40 553.21 839.31 510.92 826.03 474.91
  C 815.69 446.84 796.53 422.14 769.33 409.76
  Q 753.95 402.76 737.25 399.99
  C 711.56 395.73 685.38 396.46 660.35 404.05
  Z"
/>
<path fill="#ffffff" d="
  M 660.35 404.05
  C 685.38 396.46 711.56 395.73 737.25 399.99
  Q 753.95 402.76 769.33 409.76
  C 796.53 422.14 815.69 446.84 826.03 474.91
  C 839.31 510.92 839.40 553.21 829.96 589.43
  C 815.81 643.70 776.73 687.28 723.52 705.99
  C 681.60 720.73 633.33 721.38 590.49 710.32
  Q 585.72 709.09 575.09 704.55
  Q 574.54 704.31 574.64 703.72
  L 619.80 421.19
  A 0.99 0.99 0.0 0 1 620.32 420.47
  C 633.45 413.80 646.70 408.19 660.35 404.05
  Z"
/>
<path fill="#ffffff" d="
  M 704.44 785.50
  L 704.40 881.79
  A 0.52 0.52 0.0 0 1 703.88 882.31
  L 551.56 882.45
  Q 552.16 865.95 554.22 846.74
  Q 558.98 802.43 565.62 762.18
  Q 565.72 761.55 566.29 761.82
  C 570.43 763.83 574.79 765.25 578.88 767.00
  C 585.52 769.84 592.05 772.18 598.97 774.23
  C 632.74 784.24 669.46 787.34 704.44 785.50
  Z"
/>
<path fill="#9ac7f0" d="
  M 789.55 769.71
  L 789.57 881.99
  A 0.43 0.43 0.0 0 0 790.00 882.42
  L 942.72 882.44
  A 0.79 0.78 -0.0 0 1 943.51 883.22
  L 943.50 966.83
  A 0.58 0.58 0.0 0 1 942.92 967.41
  L 789.92 967.43
  A 0.34 0.33 -90.0 0 0 789.59 967.77
  L 789.57 1109.36
  A 0.56 0.55 0.0 0 1 789.01 1109.91
  L 705.06 1109.90
  A 0.60 0.59 0.0 0 1 704.46 1109.31
  L 704.45 968.05
  Q 704.45 967.41 703.80 967.41
  L 572.99 967.43
  A 1.42 1.24 30.6 0 0 572.50 967.52
  L 572.06 967.70
  L 572.01 967.14
  Q 571.97 966.66 571.69 966.27
  C 569.52 963.25 567.36 960.36 565.65 957.07
  C 562.42 950.87 558.79 944.43 557.89 937.70
  C 557.72 936.46 556.86 935.47 556.59 934.40
  Q 550.28 908.70 551.56 882.45
  L 703.88 882.31
  A 0.52 0.52 0.0 0 0 704.40 881.79
  L 704.44 785.50
  Q 734.01 784.19 760.25 778.20
  Q 772.82 775.34 789.55 769.71
  Z"
/>
</svg>
