<svg width="25" height="25" viewBox="0 0 25 25" fill="none" xmlns="http://www.w3.org/2000/svg">
<mask id="mask0_5_283" style="mask-type:alpha" maskUnits="userSpaceOnUse" x="0" y="0" width="25" height="25">
<rect x="0.190541" y="0.702194" width="24" height="24" fill="#D9D9D9"/>
</mask>
<g mask="url(#mask0_5_283)">
<path d="M20.3405 13.7022H8.19054V11.7022H20.3405L18.7905 10.1522L20.1905 8.70219L24.1905 12.7022L20.1905 16.7022L18.7905 15.2522L20.3405 13.7022ZM15.1905 9.70219V5.70219H5.19054V19.7022H15.1905V15.7022H17.1905V19.7022C17.1905 20.2522 16.9947 20.723 16.603 21.1147C16.2114 21.5064 15.7405 21.7022 15.1905 21.7022H5.19054C4.64054 21.7022 4.16971 21.5064 3.77804 21.1147C3.38637 20.723 3.19054 20.2522 3.19054 19.7022V5.70219C3.19054 5.15219 3.38637 4.68136 3.77804 4.28969C4.16971 3.89803 4.64054 3.70219 5.19054 3.70219H15.1905C15.7405 3.70219 16.2114 3.89803 16.603 4.28969C16.9947 4.68136 17.1905 5.15219 17.1905 5.70219V9.70219H15.1905Z" fill="#1C1B1F"/>
</g>
</svg>
