<svg width="25" height="25" viewBox="0 0 25 25" fill="none" xmlns="http://www.w3.org/2000/svg">
<mask id="mask0_4_235" style="mask-type:alpha" maskUnits="userSpaceOnUse" x="0" y="0" width="25" height="25">
<rect x="0.190541" y="0.702194" width="24" height="24" fill="#D9D9D9"/>
</mask>
<g mask="url(#mask0_4_235)">
<path d="M6.19054 8.70219H15.1905V6.70219C15.1905 5.86886 14.8989 5.16053 14.3155 4.57719C13.7322 3.99386 13.0239 3.70219 12.1905 3.70219C11.3572 3.70219 10.6489 3.99386 10.0655 4.57719C9.48221 5.16053 9.19054 5.86886 9.19054 6.70219H7.19054C7.19054 5.31886 7.67804 4.13969 8.65304 3.16469C9.62804 2.18969 10.8072 1.70219 12.1905 1.70219C13.5739 1.70219 14.753 2.18969 15.728 3.16469C16.703 4.13969 17.1905 5.31886 17.1905 6.70219V8.70219H18.1905C18.7405 8.70219 19.2114 8.89803 19.603 9.28969C19.9947 9.68136 20.1905 10.1522 20.1905 10.7022V20.7022C20.1905 21.2522 19.9947 21.723 19.603 22.1147C19.2114 22.5064 18.7405 22.7022 18.1905 22.7022H6.19054C5.64054 22.7022 5.16971 22.5064 4.77804 22.1147C4.38637 21.723 4.19054 21.2522 4.19054 20.7022V10.7022C4.19054 10.1522 4.38637 9.68136 4.77804 9.28969C5.16971 8.89803 5.64054 8.70219 6.19054 8.70219ZM6.19054 20.7022H18.1905V10.7022H6.19054V20.7022ZM12.1905 17.7022C12.7405 17.7022 13.2114 17.5064 13.603 17.1147C13.9947 16.723 14.1905 16.2522 14.1905 15.7022C14.1905 15.1522 13.9947 14.6814 13.603 14.2897C13.2114 13.898 12.7405 13.7022 12.1905 13.7022C11.6405 13.7022 11.1697 13.898 10.778 14.2897C10.3864 14.6814 10.1905 15.1522 10.1905 15.7022C10.1905 16.2522 10.3864 16.723 10.778 17.1147C11.1697 17.5064 11.6405 17.7022 12.1905 17.7022Z" fill="#1C1B1F"/>
</g>
</svg>
