<svg xmlns="http://www.w3.org/2000/svg" viewBox="0 0 512 512">
  <defs>
    <style>
      .cls-1 {
        fill: #fff;
      }

      .cls-2 {
        fill: #454545;
      }

      .cls-3 {
        fill: #99c6ef;
      }
    </style>
  </defs>
  <g id="Layer_2">
    <g id="Layer_1-2">
      <circle class="cls-1" cx="256" cy="256" r="256" />
      <path class="cls-2" d="M202.86,341.68a44.34,44.34,0,0,1-19.46,7.77,31.92,31.92,0,0,1-13.43-.91c-5.94-1.79-9.65-5.75-11.42-11.63A32.79,32.79,0,0,1,157,326.79c.1-5.26.07-10.54.33-15.8.24-4.85.71-9.69,1.23-14.52.63-5.71,1.4-11.4,2.15-17.1.89-6.72,1.79-13.43,2.76-20.14q1.78-12.5,3.71-25,3.07-19.94,6.24-39.86c2.41-15.16,4.89-30.31,7.3-45.46a3.6,3.6,0,0,0-.37-2c-2.73-5.45-5.51-10.88-8.28-16.32-.25-.49-.48-1-.86-1.78,4.29-2.27,8.43-4.6,12.69-6.68A59.3,59.3,0,0,1,200,116.77c4.3-.71,8.64-1.34,13-.2a11.61,11.61,0,0,1,8.35,9.64c.14,1.11.27,2.22.43,3.54.44-.23.84-.4,1.2-.63a78.83,78.83,0,0,1,27.86-10.87c4.35-.81,8.83-1,13.25-1.36,2.15-.19,4.32-.33,6.47-.31,16.18.21,30.65,5,42.78,16A63.72,63.72,0,0,1,331,160.65a90.29,90.29,0,0,1,3.15,14.3,83.63,83.63,0,0,1,.93,13.32,98.38,98.38,0,0,1-2.41,21.2c-3.22,13.88-8.68,26.7-17.88,37.72a83.68,83.68,0,0,1-34.2,24.5c-.48.18-.94.41-1.4.62a3,3,0,0,0-.61.1c-9.46,3.41-19.32,4.67-29.26,5.56-.41,0-.82-.05-1.24-.05-7,0-14,.09-21-.94a96.27,96.27,0,0,1-23.42-6.25l-3.09-1.3c-.13.54-.23.89-.28,1.24-.87,6-1.74,12-2.57,18.05-.38,2.79-.67,5.59-1,8.39-.22,1.93-.45,3.86-.6,5.79-.22,3-.37,5.92-.55,8.89.07,3,0,6.06.23,9.08C196.37,328.4,198.38,335.47,202.86,341.68Zm92.49-156.31.13,0c-.16-1.06-.37-2.12-.45-3.18a47.45,47.45,0,0,0-3.47-14.63c-3.91-9.33-9.65-17.08-19-21.62-7-3.38-14.5-4.2-22.09-4.43a52.26,52.26,0,0,0-9.34.63c-7.32,1.08-14.12,3.79-20.68,7.13a2.15,2.15,0,0,0-.92,1.41q-3.51,21.41-6.94,42.84c-2.18,13.57-4.31,27.15-6.47,40.72-.72,4.54-1.36,9.11-2.26,13.62-.24,1.17-.05,1.49.93,1.9a62.61,62.61,0,0,0,20.11,4.17,79.75,79.75,0,0,0,12.36-.29,86.58,86.58,0,0,0,12.31-1.92c14.76-3.56,26.72-11.38,35.31-24,7.39-10.9,10.6-23.08,10.77-36.13C295.65,189.48,295.45,187.42,295.35,185.37Z" />
      <path class="cls-3" d="M249.29,278c9.94-.89,19.8-2.15,29.26-5.56a3,3,0,0,1,.61-.1v39.45h54V341.6H279.19v50H249.35V341.68H202.86c-4.48-6.21-6.49-13.28-7-20.81-.21-3-.16-6.05-.23-9.08h53.68Z" />
    </g>
  </g>
</svg>