<svg xmlns="http://www.w3.org/2000/svg" viewBox="0 0 14.04 23.81">
    <g id="Layer_2">
        <g id="Layer_1-2">
            <path d="M5.12,23.81c-.45-.11-.91-.18-1.35-.32A5.62,5.62,0,0,1,2,13.88a.39.39,0,0,0,.15-.36V3.57A3.38,3.38,0,0,1,4,.41,3.44,3.44,0,0,1,9.07,3.34c0,1.48,0,3,0,4.44v5.74a.42.42,0,0,0,.17.37A5.43,5.43,0,0,1,11,19.77a5.46,5.46,0,0,1-4.57,4l-.29,0ZM7.69,8.68h0c0-1.77,0-3.55,0-5.32A2,2,0,0,0,4.73,1.61a2.06,2.06,0,0,0-1.18,2c0,3.43,0,6.85,0,10.28a1,1,0,0,1-.46.92,4.22,4.22,0,1,0,6.64,4.3,4.12,4.12,0,0,0-1.65-4.35,1,1,0,0,1-.41-.82C7.69,12.19,7.69,10.44,7.69,8.68Z"/>
            <path d="M12.24,4.16h-1a.7.7,0,1,1,0-1.39h2a.71.71,0,0,1,.77.7.71.71,0,0,1-.75.69Z"/>
            <path d="M12.26,7h-1a.7.7,0,1,1,0-1.39h2a.7.7,0,1,1,0,1.39h-1Z"/>
            <path d="M12.26,9.74h-1a.7.7,0,1,1,0-1.39h2.09a.7.7,0,1,1,0,1.39Z"/>
            <path d="M12.24,12.53h-1a.7.7,0,1,1,0-1.39h2.12a.7.7,0,1,1,0,1.39h-1Z"/>
            <path d="M4.93,10.77c0-1.5,0-3,0-4.49a.69.69,0,0,1,.93-.69.72.72,0,0,1,.46.67c0,.27,0,.54,0,.81v8.14a.27.27,0,0,0,.22.3,2.83,2.83,0,1,1-1.81,0,.24.24,0,0,0,.2-.27C4.92,13.74,4.93,12.25,4.93,10.77Zm.68,8.86a1.44,1.44,0,1,0-1.42-1.45A1.45,1.45,0,0,0,5.61,19.63Z"/>
        </g>
    </g>
</svg>