<svg width="25" height="25" viewBox="0 0 25 25" fill="none" xmlns="http://www.w3.org/2000/svg">
<mask id="mask0_2_205" style="mask-type:alpha" maskUnits="userSpaceOnUse" x="0" y="0" width="25" height="25">
<rect x="0.190541" y="0.702194" width="24" height="24" fill="#D9D9D9"/>
</mask>
<g mask="url(#mask0_2_205)">
<path d="M2.19054 9.70219V6.70219C2.19054 6.15219 2.38637 5.68136 2.77804 5.28969C3.16971 4.89803 3.64054 4.70219 4.19054 4.70219H20.1905C20.7405 4.70219 21.2114 4.89803 21.603 5.28969C21.9947 5.68136 22.1905 6.15219 22.1905 6.70219V9.70219H20.1905V6.70219H4.19054V9.70219H2.19054ZM4.19054 20.7022C3.64054 20.7022 3.16971 20.5064 2.77804 20.1147C2.38637 19.723 2.19054 19.2522 2.19054 18.7022V15.7022H4.19054V18.7022H20.1905V15.7022H22.1905V18.7022C22.1905 19.2522 21.9947 19.723 21.603 20.1147C21.2114 20.5064 20.7405 20.7022 20.1905 20.7022H4.19054ZM10.1905 17.7022C10.3739 17.7022 10.5489 17.6564 10.7155 17.5647C10.8822 17.473 11.0072 17.3355 11.0905 17.1522L14.1905 10.9522L15.2905 13.1522C15.3739 13.3355 15.4989 13.473 15.6655 13.5647C15.8322 13.6564 16.0072 13.7022 16.1905 13.7022H22.1905V11.7022H16.8155L15.0905 8.25219C15.0072 8.06886 14.8822 7.93969 14.7155 7.86469C14.5489 7.78969 14.3739 7.75219 14.1905 7.75219C14.0072 7.75219 13.8322 7.78969 13.6655 7.86469C13.4989 7.93969 13.3739 8.06886 13.2905 8.25219L10.1905 14.4522L9.09054 12.2522C9.00721 12.0689 8.88221 11.9314 8.71554 11.8397C8.54887 11.748 8.37387 11.7022 8.19054 11.7022H2.19054V13.7022H7.56554L9.29054 17.1522C9.37387 17.3355 9.49887 17.473 9.66554 17.5647C9.83221 17.6564 10.0072 17.7022 10.1905 17.7022Z" fill="#1C1B1F"/>
</g>
</svg>
